<svg width="239" height="248" viewBox="0 0 239 248" fill="none" xmlns="http://www.w3.org/2000/svg">
<path fill-rule="evenodd" clip-rule="evenodd" d="M191.24 182.543C174.032 184.975 156.71 186.306 139.272 186.535C128.691 186.861 118.297 186.529 108.092 185.537C113.734 183.281 117.891 179.456 120.564 174.061C135.593 170.661 150.664 167.5 165.776 164.58C168.209 170.251 172.193 174.741 177.728 178.052C194.918 181.195 203.406 174.376 203.192 157.595C198.139 145.882 189.304 142.057 176.689 146.119C173.718 147.809 171.294 149.972 169.413 152.605C153.373 155.087 137.437 158.081 121.604 161.587C120.619 157.712 118.541 154.385 115.367 151.607C139.902 149.128 163.807 143.64 187.082 135.141C198.14 129.364 204.723 120.549 206.83 108.696C209.114 95.444 209.46 82.1386 207.869 68.7794C208.333 63.0463 207.293 57.7234 204.751 52.8126C203.401 51.2169 201.67 50.7179 199.554 51.3157C174.567 63.9694 148.583 74.281 121.604 82.2514C106.25 85.9208 90.6601 87.751 74.8329 87.74C71.1391 73.305 67.3278 59.0017 63.4001 44.8292C64.9612 42.505 64.269 41.1738 61.3214 40.8375C61.3214 40.5051 61.3214 40.1718 61.3214 39.8395C60.0274 36.3598 57.9488 33.366 55.0854 30.8582C55.0854 30.5259 55.0854 30.1926 55.0854 29.8603C61.4295 25.6101 67.6656 21.1194 73.7936 16.3883C115.938 -6.72072 157.166 -5.39049 197.476 20.38C236.319 51.3037 247.579 89.7239 231.255 135.64C222.822 155.176 209.483 170.809 191.24 182.543Z" fill="#E4FADC"/>
<path fill-rule="evenodd" clip-rule="evenodd" d="M150.705 57.8022C138.391 24.2779 114.14 12.3027 77.951 21.8768C77.5155 19.0577 78.5548 16.8962 81.069 15.3903C117.868 8.10346 141.426 21.7411 151.745 56.3053C151.672 57.0687 151.326 57.5677 150.705 57.8022Z" fill="#81ED5F"/>
<path fill-rule="evenodd" clip-rule="evenodd" d="M150.705 57.8022C150.864 62.1362 148.786 64.2987 144.469 64.2887C134.561 33.828 113.254 22.0195 80.5493 28.8623C79.7469 28.7176 79.0537 28.3853 78.4706 27.8644C77.9562 25.8955 77.7826 23.8996 77.951 21.8768C114.14 12.3027 138.391 24.2779 150.705 57.8022Z" fill="#32CF76"/>
<path fill-rule="evenodd" clip-rule="evenodd" d="M55.0853 29.8603C55.0853 30.1926 55.0853 30.5259 55.0853 30.8582C39.3496 24.693 23.0662 23.1961 6.23608 26.3675C3.57951 27.4204 1.84692 29.2496 1.03935 31.8561C0.693244 31.8561 0.346102 31.8561 0 31.8561C0.0457312 28.2736 1.77832 25.7788 5.19673 24.3717C17.6938 22.6692 30.166 22.6692 42.6132 24.3717C47.2019 25.4125 51.3593 27.2417 55.0853 29.8603Z" fill="#5BD18E"/>
<path fill-rule="evenodd" clip-rule="evenodd" d="M55.0853 30.8582C57.9487 33.366 60.0274 36.3598 61.3214 39.8395C49.7847 28.8414 35.9271 25.0153 19.7476 28.3634C13.5032 29.5958 7.26711 30.7604 1.03934 31.8561C1.84692 29.2495 3.57951 27.4203 6.23608 26.3675C23.0662 23.1961 39.3496 24.693 55.0853 30.8582Z" fill="#E8F1EF"/>
<path fill-rule="evenodd" clip-rule="evenodd" d="M61.3214 39.8395C61.3214 40.1718 61.3214 40.5051 61.3214 40.8374C56.3118 41.6567 52.8476 44.3182 50.928 48.8208C50.3002 46.1085 48.9148 43.7803 46.7706 41.8354C45.566 40.089 43.8334 39.0911 41.5738 38.8416C41.3296 38.2458 40.8099 37.9135 40.0148 37.8437C35.9385 41.3254 31.6086 41.6587 27.023 38.8416C25.1407 40.078 23.0621 40.7436 20.7869 40.8374C17.143 39.5711 13.5053 39.5711 9.87379 40.8374C6.73185 40.4113 4.13348 39.0801 2.07869 36.8457C1.10067 35.2989 0.408463 33.6364 0 31.8561C0.346102 31.8561 0.693244 31.8561 1.03935 31.8561C7.26711 30.7604 13.5032 29.5958 19.7476 28.3634C35.9271 25.0153 49.7847 28.8414 61.3214 39.8395Z" fill="#143264"/>
<path fill-rule="evenodd" clip-rule="evenodd" d="M134.076 63.7897C125.28 38.4644 107.611 29.8153 81.069 37.8437C80.7343 35.6263 81.4276 33.7961 83.1477 32.3551C108.737 26.0951 125.887 34.9097 134.595 58.8001C135.406 60.6832 135.232 62.3467 134.076 63.7897Z" fill="#84EE61"/>
<path fill-rule="evenodd" clip-rule="evenodd" d="M134.076 63.7897C134.425 68.2804 132.346 70.1096 127.84 69.2783C120.619 47.5146 105.376 39.1988 82.1083 44.3302C79.8384 42.4361 79.4923 40.2746 81.069 37.8436C107.611 29.8153 125.28 38.4644 134.076 63.7897Z" fill="#31CF76"/>
<path fill-rule="evenodd" clip-rule="evenodd" d="M2.07869 36.8457C4.13348 39.0801 6.73184 40.4113 9.87379 40.8374C13.5053 39.5711 17.143 39.5711 20.7869 40.8374C23.0621 40.7436 25.1407 40.078 27.023 38.8416C31.6086 41.6587 35.9385 41.3254 40.0148 37.8437C40.8099 37.9135 41.3296 38.2458 41.5738 38.8416C38.8882 40.9592 35.7701 42.2904 32.2197 42.8333C30.1608 42.8962 28.4282 42.2305 27.023 40.8374C23.139 43.4091 19.3287 43.4091 15.5902 40.8374C9.52664 44.2503 5.02212 42.9191 2.07869 36.8457Z" fill="#41BC7E"/>
<path fill-rule="evenodd" clip-rule="evenodd" d="M61.3214 40.8375C64.269 41.1738 64.9612 42.505 63.4001 44.8292C60.2769 44.5827 57.6785 45.5806 55.605 47.8229C53.7955 50.6261 52.5826 53.6199 51.9673 56.8043C51.0413 57.5637 50.348 58.5616 49.8886 59.7981C53.2592 65.0132 54.8182 70.6685 54.5657 76.7628C50.611 86.4906 46.4536 96.1366 42.0935 105.703C40.9232 107.144 39.3642 107.808 37.4165 107.699C33.7122 106.917 30.2481 105.587 27.023 103.707C20.5635 103.009 17.9651 99.6822 19.2279 93.7276C23.1878 82.8043 28.211 72.4927 34.2984 62.7918C38.4558 61.4616 42.6132 60.1304 46.7706 58.8001C47.5771 55.2555 48.9626 51.9284 50.928 48.8209C52.8476 44.3182 56.3118 41.6568 61.3214 40.8375Z" fill="#82EE5B"/>
<path fill-rule="evenodd" clip-rule="evenodd" d="M46.7706 41.8354C48.9148 43.7803 50.3002 46.1085 50.928 48.8209C48.9626 51.9284 47.5771 55.2555 46.7706 58.8001C42.6132 60.1304 38.4558 61.4616 34.2984 62.7918C37.1452 54.9851 41.3026 47.9996 46.7706 41.8354Z" fill="#E2FADB"/>
<path fill-rule="evenodd" clip-rule="evenodd" d="M63.4001 44.8292C67.3278 59.0017 71.1391 73.305 74.8329 87.74C75.5262 89.7358 76.2184 91.7317 76.9116 93.7276C77.7441 95.2664 78.0902 96.9289 77.951 98.7172C95.5118 98.5625 112.488 95.4021 128.879 89.2369C153.505 80.7405 177.064 70.0957 199.554 57.3032C201.389 56.6646 203.122 56.8312 204.751 57.8022C205.653 61.6083 206.693 65.2677 207.869 68.7794C209.46 82.1386 209.114 95.444 206.83 108.696C203.522 119.028 196.939 126.845 187.082 132.148C162.772 141.557 137.482 146.713 111.21 147.616C103.973 144.012 96.5241 143.68 88.8641 146.618C85.3522 145.677 82.0605 144.346 78.9903 142.626C74.5087 132.217 70.5248 121.573 67.0378 110.692C62.3078 92.5151 57.2836 74.5524 51.9673 56.8043C52.5826 53.6199 53.7955 50.6261 55.605 47.8229C57.6785 45.5806 60.2769 44.5827 63.4001 44.8292Z" fill="#173466"/>
<path fill-rule="evenodd" clip-rule="evenodd" d="M117.446 68.7794C111.485 53.6119 100.399 48.6222 84.187 53.8105C83.4491 50.4574 84.8356 48.6282 88.3444 48.3219C105.324 45.852 115.024 52.6708 117.446 68.7794Z" fill="#80ED60"/>
<path fill-rule="evenodd" clip-rule="evenodd" d="M59.2427 48.8209C60.3715 48.9406 61.0647 49.6062 61.3214 50.8167C63.4271 61.8977 66.0255 72.8749 69.1165 83.7483C73.778 97.342 77.9354 110.981 81.5887 124.663C71.3438 101.973 62.8565 78.6888 56.1247 54.8084C56.6277 52.5122 57.6671 50.5163 59.2427 48.8209Z" fill="#1E826C"/>
<path fill-rule="evenodd" clip-rule="evenodd" d="M117.446 68.7794C117.055 73.4507 114.631 74.7819 110.171 72.7711C106.341 60.784 98.0259 56.2933 85.2264 59.2991C83.0074 57.7463 82.6613 55.9171 84.187 53.8105C100.399 48.6223 111.485 53.6119 117.446 68.7794Z" fill="#32CF76"/>
<path fill-rule="evenodd" clip-rule="evenodd" d="M204.751 52.8125C204.396 53.6488 203.704 53.9821 202.673 53.8105C185.541 61.8667 168.219 69.6835 150.705 77.2617C132.028 85.0705 112.627 90.3934 92.5018 93.2285C87.3165 93.7265 82.1198 93.8932 76.9116 93.7275C76.2184 91.7317 75.5262 89.7358 74.8329 87.74C90.6601 87.7509 106.25 85.9207 121.604 82.2514C148.583 74.2809 174.567 63.9693 199.554 51.3156C201.67 50.7179 203.401 51.2168 204.751 52.8125Z" fill="#87EF62"/>
<path fill-rule="evenodd" clip-rule="evenodd" d="M202.673 53.8105C203.816 54.9132 204.509 56.2434 204.751 57.8022C203.122 56.8312 201.389 56.6646 199.554 57.3032C177.064 70.0956 153.505 80.7405 128.879 89.2369C112.488 95.4021 95.5118 98.5625 77.951 98.7172C78.0902 96.9289 77.7441 95.2663 76.9116 93.7275C82.1198 93.8932 87.3165 93.7265 92.5018 93.2286C112.627 90.3935 132.028 85.0705 150.705 77.2618C168.219 69.6835 185.541 61.8667 202.673 53.8105Z" fill="#F3F7F4"/>
<path fill-rule="evenodd" clip-rule="evenodd" d="M204.751 52.8126C207.293 57.7234 208.333 63.0463 207.869 68.7794C206.693 65.2677 205.653 61.6083 204.751 57.8022C204.509 56.2434 203.816 54.9132 202.673 53.8105C203.704 53.9821 204.396 53.6488 204.751 52.8126Z" fill="#5FCF91"/>
<path fill-rule="evenodd" clip-rule="evenodd" d="M197.476 59.7981C201.282 58.9369 203.533 60.2671 204.232 63.7898C206.534 78.8205 206.187 93.7894 203.192 108.696C196.966 123 186.053 131.814 170.453 135.142C184.321 129.147 193.847 119.334 199.035 105.703C200.681 93.4521 201.027 81.1447 200.074 68.7794C199.247 66.3175 197.514 64.9873 194.877 64.7877C190.502 66.4872 186.171 67.9841 181.886 69.2784C187.501 66.592 192.698 63.4325 197.476 59.7981Z" fill="#2ABF73"/>
<path fill-rule="evenodd" clip-rule="evenodd" d="M43.6526 63.7897C47.654 63.9903 48.6934 65.8195 46.7706 69.2783C41.3546 69.8232 40.3152 67.994 43.6526 63.7897Z" fill="#E2FBD9"/>
<path fill-rule="evenodd" clip-rule="evenodd" d="M101.856 71.7732C98.0166 66.5001 93.166 65.5022 87.3051 68.7794C89.0824 64.1061 92.5465 62.6092 97.6985 64.2887C100.838 65.8245 102.224 68.3193 101.856 71.7732Z" fill="#84EE61"/>
<path fill-rule="evenodd" clip-rule="evenodd" d="M101.856 71.7732C101.712 79.064 97.9023 82.2244 90.4231 81.2535C86.2709 77.7537 85.2316 73.5954 87.3051 68.7794C93.166 65.5022 98.0166 66.5001 101.856 71.7732Z" fill="#36D077"/>
<path fill-rule="evenodd" clip-rule="evenodd" d="M194.358 80.7545C194.585 79.5819 194.239 78.584 193.318 77.7607C188.676 80.3244 183.826 82.3203 178.768 83.7483C178.75 81.6876 178.404 79.6917 177.728 77.7607C183.118 74.9196 188.488 71.9259 193.838 68.7794C195.534 72.8629 195.707 76.8546 194.358 80.7545Z" fill="#D6F0D4"/>
<path fill-rule="evenodd" clip-rule="evenodd" d="M51.9673 56.8043C57.2836 74.5524 62.3078 92.5151 67.0378 110.692C70.5248 121.573 74.5087 132.217 78.9903 142.626C81.0971 145.314 83.5229 147.643 86.2657 149.611C76.9833 157.865 75.4243 167.512 81.5887 178.551C84.3035 182.263 87.9412 184.591 92.5018 185.537C88.4827 186.76 84.3253 186.76 80.0297 185.537C77.3939 182.774 74.2758 182.108 70.6756 183.541C71.0009 180.211 69.6154 177.882 66.5182 176.555C75.8068 177.451 78.2326 173.958 73.7936 166.077C68.8318 162.668 64.1547 162.834 59.7624 166.576C59.2531 167.866 59.0796 169.198 59.2427 170.568C57.8573 169.57 56.4708 168.572 55.0854 167.574C54.3485 166.672 53.3091 166.34 51.9673 166.576C52.8019 165.655 52.9755 164.657 52.487 163.582C49.9926 161.358 47.7403 159.029 45.7312 156.597C44.8052 155.988 43.7658 155.656 42.6132 155.599C43.0477 154.878 43.7399 154.38 44.6919 154.102C42.5425 151.466 40.8099 148.638 39.4952 145.62C39.4952 144.622 39.4952 143.624 39.4952 142.626C38.4558 142.626 37.4165 142.626 36.3771 142.626C36.2431 140.913 35.8969 139.25 35.3378 137.636C35.6194 135.76 34.9262 134.43 33.2591 133.645C29.5341 123.992 27.4554 114.012 27.023 103.707C30.2481 105.587 33.7122 106.917 37.4165 107.699C39.3642 107.808 40.9232 107.144 42.0935 105.703C46.4536 96.1365 50.611 86.4906 54.5657 76.7628C54.8182 70.6685 53.2592 65.0132 49.8886 59.798C50.348 58.5616 51.0413 57.5637 51.9673 56.8043Z" fill="#E2F9DA"/>
<path fill-rule="evenodd" clip-rule="evenodd" d="M177.728 77.7607C178.404 79.6917 178.75 81.6876 178.768 83.7483C183.826 82.3202 188.676 80.3244 193.318 77.7607C194.239 78.584 194.585 79.5819 194.358 80.7545C189.762 83.4868 184.912 85.815 179.807 87.74C178.768 87.74 177.728 87.74 176.689 87.74C176.935 86.4517 176.589 85.4537 175.65 84.7462C175.831 82.6296 175.484 80.6337 174.61 78.7586C175.536 78.1499 176.576 77.8176 177.728 77.7607Z" fill="#53D187"/>
<path fill-rule="evenodd" clip-rule="evenodd" d="M174.61 78.7586C175.484 80.6337 175.831 82.6296 175.649 84.7462C173.934 82.8481 173.587 80.8523 174.61 78.7586Z" fill="#BBE0D1"/>
<path fill-rule="evenodd" clip-rule="evenodd" d="M171.492 88.7379C168.209 90.3146 164.744 91.3126 161.099 91.7317C161.349 89.3387 160.656 87.3428 159.02 85.7441C162.45 83.6066 166.261 82.2763 170.453 81.7524C170.965 84.0536 171.311 86.3818 171.492 88.7379Z" fill="#DCF3D8"/>
<path fill-rule="evenodd" clip-rule="evenodd" d="M159.02 85.7441C160.656 87.3428 161.349 89.3387 161.099 91.7317C164.744 91.3126 168.209 90.3146 171.492 88.7379C171.669 90.0572 171.323 91.2218 170.453 92.2307C166.665 94.8812 162.508 96.7104 157.981 97.7193C157.975 94.6935 157.629 91.6998 156.941 88.7379C157.087 87.2111 157.78 86.2132 159.02 85.7441Z" fill="#6CD695"/>
<path fill-rule="evenodd" clip-rule="evenodd" d="M195.397 91.7317C190.998 93.6786 186.494 95.3412 181.886 96.7213C182.164 95.1256 181.817 93.7954 180.846 92.7296C185.543 90.2208 190.22 87.5594 194.877 84.7462C195.394 87.0514 195.567 89.3796 195.397 91.7317Z" fill="#DCF5D8"/>
<path fill-rule="evenodd" clip-rule="evenodd" d="M175.649 84.7462C176.589 85.4537 176.935 86.4517 176.689 87.74C177.728 87.74 178.768 87.74 179.807 87.74C176.526 90.4703 175.139 89.4724 175.649 84.7462Z" fill="#C7E1DA"/>
<path fill-rule="evenodd" clip-rule="evenodd" d="M153.823 95.7234C150.118 97.336 146.308 98.6663 142.39 99.7151C142.39 97.0536 142.39 94.3932 142.39 91.7317C145.514 89.9584 148.978 88.9605 152.784 88.7379C152.965 91.094 153.311 93.4222 153.823 95.7234Z" fill="#D9F2D6"/>
<path fill-rule="evenodd" clip-rule="evenodd" d="M142.39 91.7317C142.39 94.3932 142.39 97.0536 142.39 99.7151C146.308 98.6663 150.118 97.336 153.823 95.7234C153.823 97.0536 153.823 98.3849 153.823 99.7151C149.86 100.651 146.05 101.981 142.39 103.707C141.117 103.056 140.424 101.892 140.312 100.214C139.878 97.7212 139.531 95.2264 139.272 92.7296C140.009 91.8275 141.049 91.4952 142.39 91.7317Z" fill="#47D181"/>
<path fill-rule="evenodd" clip-rule="evenodd" d="M195.397 91.7317C195.625 92.9043 195.279 93.9022 194.358 94.7255C189.991 97.3201 185.488 99.6492 180.846 101.711C179.775 99.2551 179.081 96.5946 178.768 93.7275C179.123 92.8913 179.815 92.558 180.846 92.7296C181.817 93.7954 182.164 95.1256 181.886 96.7213C186.494 95.3412 190.998 93.6786 195.397 91.7317Z" fill="#4AD083"/>
<path fill-rule="evenodd" clip-rule="evenodd" d="M135.115 102.709C131.598 103.837 128.133 105.167 124.722 106.701C124.028 103.565 123.335 100.571 122.643 97.7192C126.184 96.1485 129.994 95.1506 134.076 94.7255C134.691 97.347 135.037 100.008 135.115 102.709Z" fill="#DBF3D7"/>
<path fill-rule="evenodd" clip-rule="evenodd" d="M174.61 101.711C171.266 102.9 167.974 104.231 164.736 105.703C163.688 104.181 163.168 102.517 163.177 100.713C166.454 99.2211 169.745 97.5576 173.051 95.7234C174.224 97.5646 174.743 99.5604 174.61 101.711Z" fill="#D4EFD3"/>
<path fill-rule="evenodd" clip-rule="evenodd" d="M122.643 97.7192C123.335 100.571 124.028 103.565 124.722 106.701C128.133 105.167 131.598 103.837 135.115 102.709C135.394 104.305 135.046 105.635 134.076 106.701C131.512 106.955 129.433 107.953 127.84 109.694C125.977 109.561 124.246 109.893 122.643 110.692C121.622 106.884 120.929 102.892 120.564 98.7172C120.92 97.8809 121.612 97.5476 122.643 97.7192Z" fill="#48D281"/>
<path fill-rule="evenodd" clip-rule="evenodd" d="M139.272 92.7296C139.531 95.2264 139.878 97.7212 140.312 100.214C140.424 101.892 141.117 103.056 142.39 103.707C141.654 104.609 140.614 104.941 139.272 104.705C138.719 100.52 138.719 96.5287 139.272 92.7296Z" fill="#C7DADA"/>
<path fill-rule="evenodd" clip-rule="evenodd" d="M178.768 93.7275C179.081 96.5946 179.775 99.2551 180.846 101.711C180.784 102.253 180.438 102.585 179.807 102.709C177.915 99.6951 177.569 96.7014 178.768 93.7275Z" fill="#B8C9D1"/>
<path fill-rule="evenodd" clip-rule="evenodd" d="M116.407 108.696C112.337 110.006 108.179 111.004 103.935 111.69C103.935 108.696 103.935 105.703 103.935 102.709C107.507 101.267 111.317 100.269 115.367 99.7151C115.23 102.779 115.576 105.773 116.407 108.696Z" fill="#DCF3D8"/>
<path fill-rule="evenodd" clip-rule="evenodd" d="M163.177 100.713C163.168 102.517 163.688 104.181 164.736 105.703C167.974 104.231 171.266 102.9 174.61 101.711C175.952 102.751 175.952 103.914 174.61 105.204C170.535 107.328 166.377 109.158 162.138 110.692C160.473 107.86 159.953 104.866 160.579 101.711C161.276 100.96 162.142 100.627 163.177 100.713Z" fill="#68D092"/>
<path fill-rule="evenodd" clip-rule="evenodd" d="M192.279 109.694C190.452 110.071 188.719 110.736 187.082 111.69C185.903 109.488 185.21 107.16 185.004 104.705C188.177 103.43 191.121 101.767 193.838 99.7151C193.671 103.04 193.151 106.366 192.279 109.694Z" fill="#DEF6D9"/>
<path fill-rule="evenodd" clip-rule="evenodd" d="M101.856 102.709C102.549 102.709 103.241 102.709 103.935 102.709C103.935 105.703 103.935 108.696 103.935 111.69C108.179 111.004 112.337 110.006 116.407 108.696C116.407 110.36 116.407 112.023 116.407 113.686C115.367 113.686 114.328 113.686 113.289 113.686C110.796 113.446 108.718 114.111 107.053 115.682C105.32 115.682 103.589 115.682 101.856 115.682C101.856 111.358 101.856 107.033 101.856 102.709Z" fill="#4CD283"/>
<path fill-rule="evenodd" clip-rule="evenodd" d="M96.6592 114.684C92.4426 115.031 88.2852 115.696 84.187 116.68C83.4574 113.746 82.4181 110.919 81.069 108.197C86.0922 106.539 91.2889 105.374 96.6592 104.705C96.6592 108.031 96.6592 111.358 96.6592 114.684Z" fill="#DBF2D8"/>
<path fill-rule="evenodd" clip-rule="evenodd" d="M155.902 109.694C152.491 110.731 149.2 112.061 146.028 113.686C145.503 111.672 144.984 109.676 144.469 107.699C147.907 106.383 151.371 105.053 154.863 103.707C155.867 105.599 156.213 107.595 155.902 109.694Z" fill="#DAF1D7"/>
<path fill-rule="evenodd" clip-rule="evenodd" d="M185.004 104.705C185.21 107.16 185.903 109.488 187.082 111.69C188.719 110.736 190.452 110.071 192.279 109.694C189.866 111.854 187.094 113.517 183.964 114.684C183.483 111.969 182.791 109.307 181.886 106.701C182.707 105.801 183.746 105.136 185.004 104.705Z" fill="#3FCA7D"/>
<path fill-rule="evenodd" clip-rule="evenodd" d="M134.076 106.701C132.482 108.442 130.404 109.44 127.84 109.694C129.433 107.953 131.512 106.955 134.076 106.701Z" fill="#7991A6"/>
<path fill-rule="evenodd" clip-rule="evenodd" d="M144.469 107.699C144.984 109.676 145.503 111.672 146.028 113.686C149.2 112.061 152.491 110.731 155.902 109.694C157.228 110.579 157.228 111.576 155.902 112.688C151.745 114.684 147.587 116.68 143.43 118.676C140.388 114.482 140.734 110.824 144.469 107.699Z" fill="#64D390"/>
<path fill-rule="evenodd" clip-rule="evenodd" d="M120.564 98.7172C120.929 102.892 121.622 106.884 122.643 110.692C122.58 111.234 122.234 111.566 121.604 111.69C119.598 107.323 119.251 102.999 120.564 98.7172Z" fill="#AEC0CA"/>
<path fill-rule="evenodd" clip-rule="evenodd" d="M178.768 116.68C175.325 117.997 171.861 119.328 168.374 120.672C166.873 118.568 166.181 116.24 166.295 113.686C169.572 112.194 172.863 110.531 176.169 108.696C177.042 111.393 177.908 114.053 178.768 116.68Z" fill="#DEF7D9"/>
<path fill-rule="evenodd" clip-rule="evenodd" d="M137.194 116.68C133.528 117.909 129.89 119.24 126.281 120.672C125.766 118.703 125.593 116.707 125.761 114.684C129.039 113.185 132.503 111.854 136.154 110.692C137.158 112.584 137.504 114.58 137.194 116.68Z" fill="#D5EED4"/>
<path fill-rule="evenodd" clip-rule="evenodd" d="M181.886 106.701C182.791 109.307 183.483 111.969 183.964 114.684C182.882 114.225 182.016 112.895 181.366 110.692C180.571 109.13 180.744 107.799 181.886 106.701Z" fill="#B7CFCF"/>
<path fill-rule="evenodd" clip-rule="evenodd" d="M96.6592 114.684C96.9377 116.28 96.5906 117.61 95.6199 118.676C91.9946 118.716 88.5305 119.381 85.2264 120.672C84.8803 119.341 84.5331 118.01 84.187 116.68C88.2852 115.696 92.4426 115.031 96.6592 114.684Z" fill="#4BD282"/>
<path fill-rule="evenodd" clip-rule="evenodd" d="M113.289 113.686C111.624 115.257 109.545 115.922 107.053 115.682C108.718 114.111 110.796 113.446 113.289 113.686Z" fill="#9DAFBF"/>
<path fill-rule="evenodd" clip-rule="evenodd" d="M166.295 113.686C166.181 116.24 166.873 118.568 168.374 120.672C171.861 119.328 175.325 117.997 178.768 116.68C174.792 119.755 170.289 122.084 165.256 123.665C164.335 122.842 163.989 121.844 164.217 120.672C164.399 118.555 164.051 116.559 163.177 114.684C164.103 114.075 165.143 113.743 166.295 113.686Z" fill="#4ACD82"/>
<path fill-rule="evenodd" clip-rule="evenodd" d="M125.761 114.684C125.593 116.707 125.766 118.703 126.281 120.672C129.89 119.24 133.528 117.909 137.194 116.68C138.164 117.746 138.512 119.076 138.233 120.672C135.28 120.731 132.509 121.396 129.918 122.667C127.901 123.036 125.995 123.701 124.202 124.663C123.478 121.691 122.959 118.698 122.643 115.682C123.569 115.073 124.608 114.741 125.761 114.684Z" fill="#45CD80"/>
<path fill-rule="evenodd" clip-rule="evenodd" d="M101.856 102.709C101.856 107.033 101.856 111.358 101.856 115.682C103.589 115.682 105.32 115.682 107.053 115.682C105.497 116.486 103.764 117.151 101.856 117.678C100.49 112.536 100.49 107.547 101.856 102.709Z" fill="#A4BAC4"/>
<path fill-rule="evenodd" clip-rule="evenodd" d="M163.177 114.684C164.051 116.559 164.399 118.555 164.217 120.672C162.501 118.773 162.155 116.778 163.177 114.684Z" fill="#B4D9CC"/>
<path fill-rule="evenodd" clip-rule="evenodd" d="M117.446 122.667C113.602 123.842 109.791 125.172 106.013 126.659C105.009 124.767 104.663 122.771 104.974 120.672C108.946 119.053 113.104 118.055 117.446 117.678C117.446 119.341 117.446 121.004 117.446 122.667Z" fill="#D8F3D6"/>
<path fill-rule="evenodd" clip-rule="evenodd" d="M159.02 122.667C159.109 123.661 158.762 124.493 157.981 125.162C154.753 127.026 151.289 128.191 147.587 128.655C147.587 126.327 147.587 123.998 147.587 121.669C150.489 120.115 153.607 118.784 156.941 117.678C158.726 118.843 159.419 120.507 159.02 122.667Z" fill="#DCF5D8"/>
<path fill-rule="evenodd" clip-rule="evenodd" d="M187.082 116.68C188.148 117.076 188.321 117.741 187.602 118.676C185.467 120.718 184.428 120.718 184.484 118.676C185.518 118.111 186.384 117.445 187.082 116.68Z" fill="#55A38A"/>
<path fill-rule="evenodd" clip-rule="evenodd" d="M95.6198 118.676C92.6702 119.808 89.5521 120.806 86.2657 121.669C85.6348 121.546 85.2887 121.213 85.2264 120.672C88.5305 119.381 91.9946 118.716 95.6198 118.676Z" fill="#ACBFC8"/>
<path fill-rule="evenodd" clip-rule="evenodd" d="M104.974 120.672C104.663 122.771 105.009 124.767 106.013 126.659C109.791 125.172 113.602 123.842 117.446 122.667C117.446 123.998 117.446 125.329 117.446 126.659C116.104 126.423 115.065 126.755 114.328 127.657C111.288 128.63 108.17 129.628 104.974 130.651C103.012 128.168 102.318 125.174 102.895 121.669C103.251 120.833 103.943 120.5 104.974 120.672Z" fill="#52D386"/>
<path fill-rule="evenodd" clip-rule="evenodd" d="M178.768 120.672C180.094 121.556 180.094 122.554 178.768 123.665C174.274 125.887 169.77 127.217 165.256 127.657C169.98 125.558 174.484 123.229 178.768 120.672Z" fill="#BADCC4"/>
<path fill-rule="evenodd" clip-rule="evenodd" d="M97.6985 128.655C94.8736 129.197 92.1017 129.861 89.3838 130.651C88.413 129.381 87.7198 127.885 87.3051 126.16C87.726 125.217 88.4193 124.551 89.3838 124.164C91.8689 123.878 94.2936 123.379 96.6592 122.667C97.6632 124.559 98.0093 126.555 97.6985 128.655Z" fill="#D8EFD6"/>
<path fill-rule="evenodd" clip-rule="evenodd" d="M122.643 115.682C122.959 118.698 123.478 121.691 124.202 124.663C125.995 123.701 127.901 123.036 129.918 122.667C127.941 124.965 125.516 125.63 122.643 124.663C121.309 121.535 121.309 118.541 122.643 115.682Z" fill="#8CA4B3"/>
<path fill-rule="evenodd" clip-rule="evenodd" d="M127.84 135.64C127.894 133.242 127.548 130.914 126.8 128.655C130.581 127.333 134.393 126.002 138.233 124.663C139.326 126.701 140.02 128.863 140.312 131.15C140.047 132.473 139.353 133.471 138.233 134.144C134.747 134.598 131.283 135.097 127.84 135.64Z" fill="#D2EFD2"/>
<path fill-rule="evenodd" clip-rule="evenodd" d="M117.446 122.667C118.435 124.083 118.781 125.746 118.485 127.657C117.1 127.657 115.714 127.657 114.328 127.657C115.065 126.755 116.104 126.423 117.446 126.659C117.446 125.329 117.446 123.998 117.446 122.667Z" fill="#94C7B6"/>
<path fill-rule="evenodd" clip-rule="evenodd" d="M102.895 121.669C102.318 125.174 103.012 128.168 104.974 130.651C104.237 131.553 103.198 131.885 101.856 131.649C101.531 128.114 101.878 124.788 102.895 121.669Z" fill="#9EABC0"/>
<path fill-rule="evenodd" clip-rule="evenodd" d="M147.587 121.669C147.587 123.998 147.587 126.327 147.587 128.655C151.289 128.191 154.753 127.026 157.981 125.162C158.762 124.493 159.109 123.661 159.02 122.667C159.991 123.733 160.338 125.063 160.059 126.659C155.058 127.926 150.208 129.59 145.508 131.649C145.296 128.637 144.95 125.643 144.469 122.667C145.206 121.765 146.245 121.433 147.587 121.669Z" fill="#46C681"/>
<path fill-rule="evenodd" clip-rule="evenodd" d="M97.6986 128.655C97.6986 129.985 97.6986 131.316 97.6986 132.647C95.201 132.595 92.7762 132.927 90.4231 133.645C89.4836 132.937 89.1375 131.939 89.3838 130.651C92.1017 129.861 94.8736 129.197 97.6986 128.655Z" fill="#47D080"/>
<path fill-rule="evenodd" clip-rule="evenodd" d="M126.8 128.655C127.548 130.914 127.894 133.242 127.84 135.64C126.454 135.64 125.068 135.64 123.682 135.64C123.514 133.618 123.687 131.622 124.202 129.653C124.899 128.902 125.765 128.569 126.8 128.655Z" fill="#66CE91"/>
<path fill-rule="evenodd" clip-rule="evenodd" d="M144.469 122.667C144.95 125.643 145.296 128.637 145.508 131.649C143.651 128.746 143.304 125.752 144.469 122.667Z" fill="#D0E0E0"/>
<path fill-rule="evenodd" clip-rule="evenodd" d="M206.83 108.696C204.723 120.549 198.14 129.363 187.082 135.141C163.807 143.64 139.902 149.128 115.367 151.607C114.674 151.607 114.328 151.275 114.328 150.609C113.49 149.384 112.451 148.386 111.21 147.616C137.482 146.713 162.772 141.557 187.082 132.148C196.939 126.845 203.522 119.028 206.83 108.696Z" fill="#267170"/>
<path fill-rule="evenodd" clip-rule="evenodd" d="M116.407 131.649C117.446 131.649 118.485 131.649 119.525 131.649C119.525 133.312 119.525 134.975 119.525 136.638C114.275 137.233 109.078 137.233 103.935 136.638C107.918 134.587 112.076 132.924 116.407 131.649Z" fill="#BFDAC7"/>
<path fill-rule="evenodd" clip-rule="evenodd" d="M97.6985 132.647C95.9971 133.525 94.092 134.189 91.9821 134.643C91.187 134.573 90.6674 134.24 90.4231 133.645C92.7762 132.927 95.201 132.595 97.6985 132.647Z" fill="#C5D6D9"/>
<path fill-rule="evenodd" clip-rule="evenodd" d="M22.8656 134.643C29.6255 134.281 31.3581 136.776 28.0624 142.127C21.0416 142.881 19.309 140.387 22.8656 134.643Z" fill="#CDF8BD"/>
<path fill-rule="evenodd" clip-rule="evenodd" d="M33.2591 133.645C34.9262 134.43 35.6194 135.76 35.3378 137.636C31.1149 137.521 30.4217 136.19 33.2591 133.645Z" fill="#91F16E"/>
<path fill-rule="evenodd" clip-rule="evenodd" d="M53.0067 137.636C59.0484 137.199 60.781 139.694 58.2034 145.121C51.1826 145.875 49.45 143.38 53.0067 137.636Z" fill="#BDF6A8"/>
<path fill-rule="evenodd" clip-rule="evenodd" d="M12.4722 140.63C13.8576 140.63 15.2441 140.63 16.6295 140.63C16.6295 141.96 16.6295 143.292 16.6295 144.622C12.5345 145.354 11.1491 144.024 12.4722 140.63Z" fill="#8DF068"/>
<path fill-rule="evenodd" clip-rule="evenodd" d="M36.3771 142.626C37.4165 142.626 38.4558 142.626 39.4952 142.626C39.4952 143.624 39.4952 144.622 39.4952 145.62C37.4165 145.62 36.3771 144.622 36.3771 142.626Z" fill="#86EF5F"/>
<path fill-rule="evenodd" clip-rule="evenodd" d="M108.092 185.537C106.836 186.269 105.451 186.602 103.935 186.535C100.067 187.394 96.2559 187.062 92.5018 185.537C87.9412 184.591 84.3035 182.263 81.5887 178.551C75.4243 167.512 76.9833 157.865 86.2657 149.611C95.7571 145.463 105.111 145.795 114.328 150.609C114.328 151.275 114.674 151.607 115.367 151.607C118.541 154.384 120.619 157.712 121.604 161.587C121.604 162.584 121.604 163.582 121.604 164.58C121.728 165.664 122.421 166.33 123.682 166.576C137.244 163.363 150.928 160.701 164.736 158.593C166.167 158.409 167.032 157.744 167.335 156.597C168.478 155.494 169.171 154.164 169.413 152.605C171.294 149.972 173.718 147.809 176.689 146.119C189.304 142.057 198.139 145.882 203.192 157.595C203.406 174.376 194.918 181.195 177.728 178.052C172.193 174.741 168.209 170.251 165.776 164.58C150.664 167.5 135.593 170.661 120.564 174.061C117.891 179.456 113.734 183.281 108.092 185.537Z" fill="#163465"/>
<path fill-rule="evenodd" clip-rule="evenodd" d="M63.4001 147.616C63.4698 149.072 63.1237 150.402 62.3608 151.607C58.5557 151.757 57.5164 150.26 59.2427 147.117C60.8704 146.353 62.2558 146.52 63.4001 147.616Z" fill="#88EF62"/>
<path fill-rule="evenodd" clip-rule="evenodd" d="M27.023 147.616C29.9041 148.349 32.676 148.515 35.3378 148.115C36.2077 149.123 36.5538 150.288 36.3771 151.607C35.0031 151.777 33.7902 151.445 32.7394 150.609C30.5433 154.514 28.291 154.514 25.9837 150.609C26.1759 149.528 26.522 148.53 27.023 147.616Z" fill="#89EF63"/>
<path fill-rule="evenodd" clip-rule="evenodd" d="M47.8099 147.616C53.9026 147.777 55.288 150.272 51.9673 155.1C45.6304 155.247 44.245 152.752 47.8099 147.616Z" fill="#88EF62"/>
<path fill-rule="evenodd" clip-rule="evenodd" d="M78.9903 142.626C82.0605 144.346 85.3521 145.677 88.8641 146.618C96.5241 143.68 103.973 144.012 111.21 147.616C112.451 148.386 113.49 149.384 114.328 150.609C105.111 145.795 95.757 145.463 86.2657 149.611C83.5229 147.643 81.0971 145.314 78.9903 142.626Z" fill="#289570"/>
<path fill-rule="evenodd" clip-rule="evenodd" d="M197.476 156.597C189.84 148.992 181.872 148.659 173.571 155.599C175.766 151.041 179.576 148.713 185.004 148.613C190.98 148.811 195.137 151.473 197.476 156.597Z" fill="#DFEEEA"/>
<path fill-rule="evenodd" clip-rule="evenodd" d="M63.4001 147.616C64.3397 148.323 64.6858 149.321 64.4395 150.609C72.2314 149.915 74.3101 152.742 70.6755 159.092C64.0913 160.589 61.3204 158.094 62.3608 151.607C63.1237 150.402 63.4698 149.072 63.4001 147.616Z" fill="#BCF6A8"/>
<path fill-rule="evenodd" clip-rule="evenodd" d="M114.328 159.591C104.579 151.732 94.8777 151.732 85.2264 159.591C90.3836 150.716 98.0051 148.221 108.092 152.106C110.813 154.208 112.892 156.703 114.328 159.591Z" fill="#E9F4F1"/>
<path fill-rule="evenodd" clip-rule="evenodd" d="M169.413 152.605C169.171 154.164 168.478 155.494 167.335 156.597C152.018 158.826 136.774 161.488 121.604 164.58C121.604 163.582 121.604 162.584 121.604 161.587C137.437 158.081 153.373 155.087 169.413 152.605Z" fill="#3AC87A"/>
<path fill-rule="evenodd" clip-rule="evenodd" d="M197.476 156.597C200.563 166.793 196.578 172.78 185.523 174.56C176.934 174.129 172.257 169.805 171.492 161.587C171.348 159.208 172.041 157.213 173.571 155.599C181.872 148.659 189.84 148.992 197.476 156.597Z" fill="#299C71"/>
<path fill-rule="evenodd" clip-rule="evenodd" d="M180.846 152.605C192.153 151.641 196.484 156.298 193.838 166.576C187.521 173.347 181.631 173.015 176.169 165.578C174.484 160.013 176.043 155.688 180.846 152.605Z" fill="#2AC574"/>
<path fill-rule="evenodd" clip-rule="evenodd" d="M42.6132 155.599C43.7658 155.656 44.8052 155.988 45.7312 156.597C45.0214 158.269 43.6349 158.935 41.5738 158.593C41.3275 157.304 41.6736 156.306 42.6132 155.599Z" fill="#94F171"/>
<path fill-rule="evenodd" clip-rule="evenodd" d="M114.328 159.591C118.297 172.308 113.274 179.959 99.2576 182.543C85.374 179.813 80.6969 172.163 85.2264 159.591C94.8778 151.732 104.579 151.732 114.328 159.591Z" fill="#259A70"/>
<path fill-rule="evenodd" clip-rule="evenodd" d="M96.6592 154.601C107.94 154.619 112.617 159.941 110.69 170.568C107.434 176.383 102.411 178.544 95.6199 177.054C88.9597 173.738 86.7075 168.583 88.8641 161.587C90.6746 158.347 93.273 156.019 96.6592 154.601Z" fill="#2AC674"/>
<path fill-rule="evenodd" clip-rule="evenodd" d="M182.925 155.599C189.549 155.467 192.147 158.461 190.72 164.58C188.468 167.362 185.522 168.193 181.886 167.075C177.599 162.779 177.945 158.954 182.925 155.599Z" fill="#113363"/>
<path fill-rule="evenodd" clip-rule="evenodd" d="M32.2197 155.599C37.4092 156.095 38.4486 158.257 35.3378 162.085C29.9966 161.972 28.9572 159.809 32.2197 155.599Z" fill="#CDF8BE"/>
<path fill-rule="evenodd" clip-rule="evenodd" d="M96.6592 159.591C104.797 158.588 108.088 161.914 106.533 169.57C101.98 174.88 97.4751 174.88 93.0215 169.57C91.5467 165.161 92.7596 161.835 96.6592 159.591Z" fill="#103163"/>
<path fill-rule="evenodd" clip-rule="evenodd" d="M71.7149 159.591C75.2081 160.292 75.5542 161.623 72.7542 163.582C70.528 162.647 70.1808 161.317 71.7149 159.591Z" fill="#95F173"/>
<path fill-rule="evenodd" clip-rule="evenodd" d="M167.335 156.597C167.032 157.744 166.167 158.409 164.736 158.593C150.928 160.701 137.244 163.363 123.682 166.576C122.421 166.33 121.728 165.664 121.604 164.58C136.774 161.488 152.018 158.826 167.335 156.597Z" fill="#98DDBA"/>
<path fill-rule="evenodd" clip-rule="evenodd" d="M39.4952 162.584C47.2871 161.89 49.3658 164.717 45.7312 171.067C38.0744 171.812 35.9957 168.984 39.4952 162.584Z" fill="#86EF60"/>
<path fill-rule="evenodd" clip-rule="evenodd" d="M66.5182 176.555C62.8108 175.989 60.385 173.993 59.2427 170.568C59.0796 169.198 59.2531 167.866 59.7624 166.576C64.1547 162.834 68.8318 162.668 73.7936 166.077C78.2326 173.958 75.8068 177.451 66.5182 176.555Z" fill="#84EF5D"/>
<path fill-rule="evenodd" clip-rule="evenodd" d="M51.9673 166.576C53.3091 166.34 54.3485 166.672 55.0854 167.574C54.3755 169.247 52.989 169.912 50.928 169.57C50.6816 168.282 51.0277 167.284 51.9673 166.576Z" fill="#97F175"/>
<path fill-rule="evenodd" clip-rule="evenodd" d="M51.9673 171.566C56.5436 170.96 57.929 172.624 56.1247 176.555C51.1701 177.952 49.7847 176.288 51.9673 171.566Z" fill="#CFF8C0"/>
<path fill-rule="evenodd" clip-rule="evenodd" d="M231.774 174.56C214.446 183.3 196.085 189.455 176.689 193.021C147.451 197.859 118.003 200.022 88.3444 199.508C70.5279 197.298 53.8984 191.81 38.4558 183.042C26.8848 174.796 27.578 173.632 40.5345 179.549C53.0919 184.898 66.2573 188.723 80.0297 191.025C119.974 197.157 159.469 195.161 198.515 185.038C206.935 183.068 214.904 180.24 222.42 176.555C226.905 174.648 231.235 172.319 235.412 169.57C235.332 171.837 234.12 173.5 231.774 174.56Z" fill="#30C976"/>
<path fill-rule="evenodd" clip-rule="evenodd" d="M74.8329 177.553C77.0831 177.17 78.8157 177.836 80.0297 179.549C78.8157 181.263 77.0831 181.928 74.8329 181.545C74.8329 180.215 74.8329 178.884 74.8329 177.553Z" fill="#8AF064"/>
<path fill-rule="evenodd" clip-rule="evenodd" d="M231.774 174.56C225.813 180.263 218.883 184.753 210.987 188.032C176.188 200.8 140.158 205.456 102.895 202.003C97.8139 201.649 92.9633 200.818 88.3444 199.508C118.003 200.022 147.451 197.859 176.689 193.021C196.085 189.455 214.446 183.3 231.774 174.56Z" fill="#288871"/>
<path fill-rule="evenodd" clip-rule="evenodd" d="M222.42 176.555C214.904 180.24 206.935 183.068 198.515 185.038C159.469 195.161 119.974 197.157 80.0297 191.025C66.2573 188.723 53.0919 184.898 40.5345 179.549C48.0334 181.521 55.6549 182.852 63.4001 183.541C64.0934 183.541 64.7856 183.541 65.4788 183.541C70.1351 184.56 74.9857 185.224 80.0297 185.537C84.3253 186.76 88.4827 186.76 92.5018 185.537C96.2559 187.062 100.067 187.394 103.935 186.535C115.714 187.865 127.493 187.865 139.272 186.535C156.71 186.306 174.032 184.975 191.24 182.543C201.767 181.18 212.161 179.184 222.42 176.555Z" fill="#1E576A"/>
<path fill-rule="evenodd" clip-rule="evenodd" d="M65.4788 183.541C64.7856 183.541 64.0934 183.541 63.4001 183.541C60.6916 180.431 61.7309 179.101 66.5182 179.549C66.5878 181.005 66.2417 182.335 65.4788 183.541Z" fill="#93F170"/>
<path fill-rule="evenodd" clip-rule="evenodd" d="M108.092 185.537C118.297 186.529 128.691 186.861 139.272 186.535C127.493 187.865 115.714 187.865 103.935 186.535C105.451 186.602 106.836 186.269 108.092 185.537Z" fill="#8EC1AC"/>
<path fill-rule="evenodd" clip-rule="evenodd" d="M44.6919 205.495C53.0971 203.807 59.8528 206.135 64.9591 212.481C65.9756 215.643 65.4559 218.471 63.4001 220.963C61.1125 221.786 59.2074 221.287 57.6837 219.466C57.8448 217.16 57.8448 214.832 57.6837 212.481C54.2196 208.489 50.7544 208.489 47.2903 212.481C44.0038 217.747 42.9645 223.401 44.1722 229.446C45.038 230.277 45.9048 231.109 46.7706 231.94C50.9384 232.297 55.0957 232.13 59.2427 231.441C59.4652 233.082 59.118 234.579 58.2034 235.932C42.0052 239.333 34.5572 233.179 35.8574 217.47C37.5505 212.531 40.495 208.539 44.6919 205.495Z" fill="#1B2F68"/>
<path fill-rule="evenodd" clip-rule="evenodd" d="M209.948 202.502C211.681 202.502 213.412 202.502 215.145 202.502C212.133 210.868 210.574 219.517 210.468 228.448C212.783 229.837 213.995 231.833 214.105 234.435C209.948 235.433 205.791 236.431 201.633 237.429C202.161 234.758 202.335 232.097 202.153 229.446C197.094 224.923 192.417 220.099 188.122 214.976C186.806 214.667 185.593 214.168 184.484 213.479C180.02 221.884 175.69 230.367 171.492 238.926C177.32 239.615 181.997 237.786 185.523 233.437C186.326 233.582 187.019 233.914 187.602 234.435C188.119 236.74 188.291 239.069 188.122 241.421C179.117 242.922 170.109 244.086 161.099 244.913C160.624 244.5 160.277 244.001 160.059 243.417C164.084 234.858 168.241 226.376 172.531 217.969C167.218 216.858 163.061 218.521 160.059 222.959C159.074 223.441 158.035 223.607 156.941 223.458C157.096 222.408 156.924 221.41 156.422 220.464C156.218 222.246 155.352 223.577 153.823 224.456C152.19 222.545 150.112 221.547 147.587 221.462C147.521 230.024 148.387 238.34 150.186 246.41C146.309 247.368 142.325 247.701 138.233 247.408C138.418 244.592 139.111 241.931 140.312 239.425C139.757 233.425 139.063 227.438 138.233 221.462C130.904 227.571 128.479 226.075 130.958 216.971C137.201 216.548 143.437 216.049 149.666 215.475C151.671 215.514 153.576 215.847 155.382 216.472C168.51 213.407 181.676 210.413 194.877 207.491C196.208 207.604 197.074 208.27 197.476 209.487C196.617 210.436 196.445 211.434 196.956 212.481C199.728 215.142 202.499 217.803 205.271 220.464C208.184 215.441 208.357 210.451 205.791 205.495C206.959 204.139 208.345 203.141 209.948 202.502Z" fill="#1B2F68"/>
<path fill-rule="evenodd" clip-rule="evenodd" d="M76.9116 212.481C79.9756 212.204 82.9201 212.537 85.7461 213.479C87.8954 224.311 90.4938 234.955 93.5412 245.412C88.9119 245.49 84.4084 244.825 80.0297 243.417C79.6836 242.918 79.3364 242.419 78.9903 241.92C81.148 240.678 82.1873 238.849 82.1084 236.431C78.268 235.473 74.4577 235.473 70.6755 236.431C72.1826 237.778 72.8758 239.441 72.7542 241.421C69.2402 241.461 65.7761 241.128 62.3608 240.423C67.6614 233.616 72.5121 226.298 76.9116 218.468C74.2904 216.326 74.2904 214.33 76.9116 212.481Z" fill="#1C2F68"/>
<path fill-rule="evenodd" clip-rule="evenodd" d="M98.7379 216.472C105.329 216.307 111.912 216.472 118.485 216.971C125.852 218.389 128.451 222.547 126.281 229.446C125.199 231.526 123.64 233.19 121.604 234.435C124.34 238.697 126.765 243.021 128.879 247.408C125.742 247.573 122.624 247.406 119.525 246.909C117.834 244.161 116.275 241.333 114.848 238.427C113.347 236.775 111.441 236.11 109.131 236.431C108.677 239.731 109.37 242.725 111.21 245.412C106.759 246.402 102.255 246.736 97.6985 246.41C97.474 244.234 98.3398 242.571 100.297 241.421C101.407 232.88 100.887 224.565 98.7379 216.472Z" fill="#192D67"/>
<path fill-rule="evenodd" clip-rule="evenodd" d="M109.131 220.464C117.569 220.346 119.647 223.839 115.367 230.942C113.317 231.436 111.238 231.603 109.131 231.441C109.131 227.782 109.131 224.124 109.131 220.464Z" fill="#EDEFF3"/>
<path fill-rule="evenodd" clip-rule="evenodd" d="M77.951 224.456C79.8675 226.231 80.5597 228.559 80.0297 231.441C78.1713 231.726 76.4387 231.393 74.8329 230.443C75.9336 228.414 76.9729 226.418 77.951 224.456Z" fill="#E5E8EE"/>
</svg>
