<?xml version="1.0" encoding="UTF-8"?>
<svg version="1.1" xmlns="http://www.w3.org/2000/svg" width="190" height="190">
<path d="M0 0 C62.7 0 125.4 0 190 0 C190 62.7 190 125.4 190 190 C127.3 190 64.6 190 0 190 C0 127.3 0 64.6 0 0 Z " fill="#FEFEFE" transform="translate(0,0)"/>
<path d="M0 0 C3.76374624 2.2180599 6.29202462 4.62810015 8.625 8.375 C9.28377573 11.37882069 9.54993455 14.30414053 9.625 17.375 C8.635 17.375 7.645 17.375 6.625 17.375 C6.625 16.055 6.625 14.735 6.625 13.375 C5.965 13.375 5.305 13.375 4.625 13.375 C4.66625 14.303125 4.7075 15.23125 4.75 16.1875 C4.625 19.375 4.625 19.375 2.625 22.375 C9.70739182 20.62523261 16.05308554 17.91350131 22.53344727 14.62475586 C27.30907843 12.26969281 27.30907843 12.26969281 30.625 13.375 C32.32794535 22.52146453 33.1206001 31.98321314 28.625 40.375 C23.61891854 46.17151537 16.84041691 47.47326221 9.625 49.375 C8.56925781 49.67470703 8.56925781 49.67470703 7.4921875 49.98046875 C5.40370775 50.4217584 3.50715797 50.47303597 1.375 50.4375 C-0.48125 50.4065625 -0.48125 50.4065625 -2.375 50.375 C-1.715 52.355 -1.055 54.335 -0.375 56.375 C2.21435677 56.00466176 4.7932182 55.60514117 7.375 55.1875 C8.10460937 55.08630859 8.83421875 54.98511719 9.5859375 54.88085938 C13.55331605 54.21361844 15.16681837 53.88400514 17.94921875 50.79296875 C18.50222656 49.99503906 19.05523437 49.19710937 19.625 48.375 C22.8338071 47.85111313 24.6550175 47.82534325 27.5 49.4375 C29.26773274 52.4819286 28.99323916 54.9381012 28.625 58.375 C27.5 60.3125 27.5 60.3125 25.625 61.375 C22.34001168 61.78562354 20.46654581 61.9921336 17.75 60 C16.625 58.375 16.625 58.375 16.625 56.375 C15.66078125 56.5915625 14.6965625 56.808125 13.703125 57.03125 C12.43984375 57.3096875 11.1765625 57.588125 9.875 57.875 C8.62203125 58.1534375 7.3690625 58.431875 6.078125 58.71875 C2.625 59.375 2.625 59.375 -1.375 59.375 C-2.035 60.695 -2.695 62.015 -3.375 63.375 C9.44864608 63.71769028 21.1150013 63.42352241 33.625 60.375 C35.62207972 60.02459496 37.62137517 59.68580325 39.625 59.375 C35.92564958 63.60688647 32.48685825 65.5505147 27.1875 67.125 C26.54490234 67.33253906 25.90230469 67.54007812 25.24023438 67.75390625 C7.7270568 73.26566772 -13.82248 72.24401168 -30.07421875 63.8125 C-32.375 62.375 -32.375 62.375 -33.375 60.375 C-32.35019531 60.5915625 -31.32539062 60.808125 -30.26953125 61.03125 C-28.90890759 61.31275834 -27.54822749 61.59399395 -26.1875 61.875 C-25.51396484 62.01808594 -24.84042969 62.16117188 -24.14648438 62.30859375 C-20.49990207 63.05569842 -17.09851043 63.54852282 -13.375 63.375 C-13.87 63.045 -14.365 62.715 -14.875 62.375 C-17.31014285 59.12814287 -16.69160564 56.36423111 -16.375 52.375 C-15.715 51.715 -15.055 51.055 -14.375 50.375 C-14.81714844 49.87613281 -15.25929688 49.37726563 -15.71484375 48.86328125 C-17.86545028 45.63990158 -18.85999259 42.24370038 -19.9375 38.5625 C-20.14568359 37.87607422 -20.35386719 37.18964844 -20.56835938 36.48242188 C-21.88298222 32.12644587 -23.13334941 27.75224747 -24.375 23.375 C-27.345 28.82 -27.345 28.82 -30.375 34.375 C-35.375 33.375 -35.375 33.375 -38.375 31.375 C-37.85345333 26.15953327 -36.31481101 21.70735307 -33.375 17.375 C-31.71838239 16.35843919 -30.05388441 15.35434924 -28.375 14.375 C-28.18739959 11.82013964 -28.18739959 11.82013964 -28.375 9.375 C-29.43460938 9.39820313 -30.49421875 9.42140625 -31.5859375 9.4453125 C-32.9739513 9.46406944 -34.3619727 9.48226972 -35.75 9.5 C-36.79800781 9.52513672 -36.79800781 9.52513672 -37.8671875 9.55078125 C-39.70397486 9.56844267 -41.54101963 9.47803261 -43.375 9.375 C-44.035 8.715 -44.695 8.055 -45.375 7.375 C-45 4.75 -45 4.75 -44.375 2.375 C-31.7693288 0.9530188 -31.7693288 0.9530188 -26.875 2.5625 C-25.72 2.830625 -24.565 3.09875 -23.375 3.375 C-20.52342545 1.67752228 -20.52342545 1.67752228 -18.375 -0.625 C-12.44146813 -2.60284396 -5.73646881 -2.63331235 0 0 Z " fill="#173A68" transform="translate(93.375,49.625)"/>
<path d="M0 0 C3.76374624 2.2180599 6.29202462 4.62810015 8.625 8.375 C9.28377573 11.37882069 9.54993455 14.30414053 9.625 17.375 C8.635 17.375 7.645 17.375 6.625 17.375 C6.625 16.055 6.625 14.735 6.625 13.375 C5.965 13.375 5.305 13.375 4.625 13.375 C4.66625 14.303125 4.7075 15.23125 4.75 16.1875 C4.625 19.375 4.625 19.375 2.625 22.375 C9.70739182 20.62523261 16.05308554 17.91350131 22.53344727 14.62475586 C27.30907843 12.26969281 27.30907843 12.26969281 30.625 13.375 C30.295 14.365 29.965 15.355 29.625 16.375 C28.96113281 16.46007812 28.29726562 16.54515625 27.61328125 16.6328125 C23.68053581 17.6095728 20.38669917 19.37379762 16.8125 21.25 C11.51130199 24.01981255 6.26437118 26.36680287 0.625 28.375 C1.264375 28.6225 1.90375 28.87 2.5625 29.125 C4.625 30.375 4.625 30.375 5.375 32.5 C5.4575 33.11875 5.54 33.7375 5.625 34.375 C6.285 34.045 6.945 33.715 7.625 33.375 C6.965 33.375 6.305 33.375 5.625 33.375 C5.625 31.725 5.625 30.075 5.625 28.375 C9.625 27.04166667 13.625 25.70833333 17.625 24.375 C17.625 26.025 17.625 27.675 17.625 29.375 C20.595 28.385 23.565 27.395 26.625 26.375 C26.295 29.675 25.965 32.975 25.625 36.375 C24.965 36.375 24.305 36.375 23.625 36.375 C23.625 37.365 23.625 38.355 23.625 39.375 C21.66033587 40.44275224 19.65644641 41.44053465 17.625 42.375 C16.635 41.88 16.635 41.88 15.625 41.375 C13.32260188 41.23749748 13.32260188 41.23749748 10.3125 42.875 C6.97549459 44.23242593 5.13422751 44.69402068 1.625 44.375 C1.625 43.385 1.625 42.395 1.625 41.375 C0.635 41.705 -0.355 42.035 -1.375 42.375 C-2.10823796 44.39008358 -2.10823796 44.39008358 -2.375 46.375 C-4.355 46.375 -6.335 46.375 -8.375 46.375 C-8.375 45.715 -8.375 45.055 -8.375 44.375 C-9.695 44.375 -11.015 44.375 -12.375 44.375 C-12.705 43.385 -13.035 42.395 -13.375 41.375 C-11.725 40.715 -10.075 40.055 -8.375 39.375 C-8.87 35.91 -8.87 35.91 -9.375 32.375 C-11.685 32.045 -13.995 31.715 -16.375 31.375 C-17.54956696 28.08827315 -18.52934488 24.84395306 -19.234375 21.4296875 C-19.38132812 20.74519531 -19.52828125 20.06070313 -19.6796875 19.35546875 C-19.97749562 17.94741104 -20.25867836 16.53573815 -20.5234375 15.12109375 C-21.34769493 11.42590576 -22.22493912 9.51699791 -24.9921875 6.8984375 C-29.15400649 5.02417721 -32.26017643 4.91390522 -36.75 5.125 C-37.85408203 5.15207031 -37.85408203 5.15207031 -38.98046875 5.1796875 C-40.77921736 5.22640824 -42.57728711 5.29813817 -44.375 5.375 C-44.705 6.035 -45.035 6.695 -45.375 7.375 C-45.045 5.725 -44.715 4.075 -44.375 2.375 C-31.7693288 0.9530188 -31.7693288 0.9530188 -26.875 2.5625 C-25.72 2.830625 -24.565 3.09875 -23.375 3.375 C-20.52342545 1.67752228 -20.52342545 1.67752228 -18.375 -0.625 C-12.44146813 -2.60284396 -5.73646881 -2.63331235 0 0 Z " fill="#E1F9DB" transform="translate(93.375,49.625)"/>
<path d="M0 0 C7.04161578 5.45107537 11.11332402 13.10956034 13.09375 21.69140625 C14.80926235 37.4102424 10.64336984 46.29080768 1.09375 58.69140625 C1.42375 59.35140625 1.75375 60.01140625 2.09375 60.69140625 C-9.43038175 63.4671111 -21.13803213 62.88584808 -32.90625 62.69140625 C-31.33085667 59.27805403 -30.51735759 57.92762594 -26.9453125 56.546875 C-25.81867188 56.32644531 -24.69203125 56.10601562 -23.53125 55.87890625 C-22.40976563 55.64558594 -21.28828125 55.41226563 -20.1328125 55.171875 C-17.32088794 54.75315016 -14.74058906 54.59055898 -11.90625 54.69140625 C-11.57625 56.01140625 -11.24625 57.33140625 -10.90625 58.69140625 C-6.8961566 58.87005256 -6.8961566 58.87005256 -2.90625 58.69140625 C-0.52630632 56.74808293 -0.52630632 56.74808293 -0.65625 53.19140625 C-0.52630632 49.63472957 -0.52630632 49.63472957 -2.90625 47.69140625 C-5.8211755 47.10758665 -5.8211755 47.10758665 -8.90625 47.69140625 C-9.463125 48.47515625 -10.02 49.25890625 -10.59375 50.06640625 C-14.17972794 54.1369758 -18.6747869 54.19423174 -23.90625 54.69140625 C-25.57272696 54.71655199 -27.23991536 54.72467246 -28.90625 54.69140625 C-29.56625 52.71140625 -30.22625 50.73140625 -30.90625 48.69140625 C-29.87886719 48.52125 -28.85148437 48.35109375 -27.79296875 48.17578125 C-13.53201324 46.17200066 -13.53201324 46.17200066 -1.34375 39.31640625 C1.40761793 34.29216916 2.35603295 29.90210419 2.28125 24.19140625 C2.27158203 22.5671875 2.27158203 22.5671875 2.26171875 20.91015625 C2.09770535 17.76720181 1.67553555 14.78185108 1.09375 11.69140625 C-4.48580517 13.42629919 -9.69015468 15.76978707 -14.984375 18.21289062 C-18.9648171 20.00181069 -22.52159427 21.19128146 -26.90625 21.69140625 C-26.90625 20.70140625 -26.90625 19.71140625 -26.90625 18.69140625 C-26.24625 18.36140625 -25.58625 18.03140625 -24.90625 17.69140625 C-24.24852572 14.66206134 -24.24852572 14.66206134 -23.90625 11.69140625 C-23.24625 11.69140625 -22.58625 11.69140625 -21.90625 11.69140625 C-21.90625 13.01140625 -21.90625 14.33140625 -21.90625 15.69140625 C-20.91625 15.69140625 -19.92625 15.69140625 -18.90625 15.69140625 C-19.86295551 9.2657722 -21.09622497 5.18076295 -25.90625 0.69140625 C-31.39000602 -2.42680796 -36.72881914 -2.94814004 -42.90625 -3.30859375 C-32.26721543 -14.83158371 -10.86711553 -7.46000759 0 0 Z " fill="#E3F9DC" transform="translate(121.90625,51.30859375)"/>
<path d="M0 0 C2 1 2 1 3.18359375 4.53515625 C3.60937772 6.04208449 4.02698336 7.55134124 4.4375 9.0625 C6.76424217 19.31827461 6.76424217 19.31827461 12 28 C11.34 28.66 10.68 29.32 10 30 C9.42042335 36.47656158 9.42042335 36.47656158 13 42 C9.7 41.67 6.4 41.34 3 41 C3 40.34 3 39.68 3 39 C1.68 39 0.36 39 -1 39 C-0.979375 38.195625 -0.95875 37.39125 -0.9375 36.5625 C-0.70366379 34.06645115 -0.70366379 34.06645115 -2 33 C-2 33.99 -2 34.98 -2 36 C-3.32 36 -4.64 36 -6 36 C-6 35.01 -6 34.02 -6 33 C-6.99 32.67 -7.98 32.34 -9 32 C-8.67 31.34 -8.34 30.68 -8 30 C-8.66 29.67 -9.32 29.34 -10 29 C-10.72693904 27.02111039 -11.39816251 25.02045442 -12 23 C-10.68 22.67 -9.36 22.34 -8 22 C-8.66 18.37 -9.32 14.74 -10 11 C-8.35 11 -6.7 11 -5 11 C-3.35 7.37 -1.7 3.74 0 0 Z M-6 27 C-5 29 -5 29 -5 29 Z " fill="#DFF8D8" transform="translate(68,72)"/>
<path d="M0 0 C0 1.65 0 3.3 0 5 C2.97 4.01 5.94 3.02 9 2 C8.67 5.3 8.34 8.6 8 12 C7.34 12 6.68 12 6 12 C6 12.99 6 13.98 6 15 C4.03533587 16.06775224 2.03144641 17.06553465 0 18 C-0.66 17.67 -1.32 17.34 -2 17 C-4.30239812 16.86249748 -4.30239812 16.86249748 -7.3125 18.5 C-10.64950541 19.85742593 -12.49077249 20.31902068 -16 20 C-16 19.01 -16 18.02 -16 17 C-16.99 17.33 -17.98 17.66 -19 18 C-19.73323796 20.01508358 -19.73323796 20.01508358 -20 22 C-21.98 22 -23.96 22 -26 22 C-26 21.34 -26 20.68 -26 20 C-27.32 20 -28.64 20 -30 20 C-30.33 19.01 -30.66 18.02 -31 17 C-29.35 16.34 -27.7 15.68 -26 15 C-26.18129815 11.56206661 -26.18129815 11.56206661 -27 8 C-28.97742781 6.73990208 -28.97742781 6.73990208 -31 6 C-28.94065741 5.60803143 -26.8773063 5.2370859 -24.8125 4.875 C-23.66394531 4.66617188 -22.51539062 4.45734375 -21.33203125 4.2421875 C-17.83458024 3.98797652 -16.03803844 4.30227264 -13 6 C-12.1875 8.125 -12.1875 8.125 -12 10 C-11.34 9.67 -10.68 9.34 -10 9 C-10.66 9 -11.32 9 -12 9 C-12 7.35 -12 5.7 -12 4 C-11.0925 3.71125 -10.185 3.4225 -9.25 3.125 C-6.11648882 2.11919787 -6.11648882 2.11919787 -3.75 0.875 C-2 0 -2 0 0 0 Z " fill="#436481" transform="translate(111,74)"/>
<path d="M0 0 C3.2088071 -0.52388687 5.0300175 -0.54965675 7.875 1.0625 C9.64273274 4.1069286 9.36823916 6.5631012 9 10 C7.875 11.9375 7.875 11.9375 6 13 C2.71501168 13.41062354 0.84154581 13.6171336 -1.875 11.625 C-3 10 -3 10 -3 8 C-3.96421875 8.2165625 -4.9284375 8.433125 -5.921875 8.65625 C-7.18515625 8.9346875 -8.4484375 9.213125 -9.75 9.5 C-11.00296875 9.7784375 -12.2559375 10.056875 -13.546875 10.34375 C-17 11 -17 11 -21 11 C-21.33 11.66 -21.66 12.32 -22 13 C-25.52059568 14.17353189 -28.306493 14.20146402 -32 14 C-34 12 -34 12 -34.375 8.5625 C-34 5 -34 5 -32.4375 3.0625 C-29.06610977 1.59291964 -26.63537875 1.53731543 -23 2 C-21.0625 3.875 -21.0625 3.875 -20 6 C-20 6.66 -20 7.32 -20 8 C-17.41064323 7.62966176 -14.8317818 7.23014117 -12.25 6.8125 C-11.52039063 6.71130859 -10.79078125 6.61011719 -10.0390625 6.50585938 C-6.07168395 5.83861844 -4.45818163 5.50900514 -1.67578125 2.41796875 C-1.12277344 1.62003906 -0.56976563 0.82210937 0 0 Z " fill="#163867" transform="translate(113,98)"/>
<path d="M0 0 C-3.82318741 3.44160249 -7.58738252 5.18362509 -12.4375 6.6875 C-13.08009766 6.89955078 -13.72269531 7.11160156 -14.38476562 7.33007812 C-30.31931931 12.45825429 -51.54614947 12.26076458 -66.6875 5 C-71.83537653 2.32924694 -71.83537653 2.32924694 -73 0 C-71.99839844 0.2165625 -70.99679688 0.433125 -69.96484375 0.65625 C-68.62247263 0.93786632 -67.28002029 1.21909566 -65.9375 1.5 C-65.28072266 1.64308594 -64.62394531 1.78617187 -63.94726562 1.93359375 C-59.56860012 2.83952455 -55.49581296 3.14031146 -51 3 C-50.67 3.66 -50.34 4.32 -50 5 C-49.01 4.67 -48.02 4.34 -47 4 C-44.03429098 3.01143033 -42.28107743 2.91995412 -39.203125 3.0078125 C-26.80446112 3.25224001 -15.69067803 2.81880308 -3.73046875 -0.66015625 C-2 -1 -2 -1 0 0 Z " fill="#267571" transform="translate(133,110)"/>
<path d="M0 0 C9.37047497 -0.91501926 9.37047497 -0.91501926 13.25390625 1.265625 C15.66256658 3.3373746 17.57258084 5.14516168 19 8 C19.45023697 16.1042654 19.45023697 16.1042654 17 19 C12.19130283 20.48840627 7.86942404 19.82532611 3 19 C2 18 2 18 1.875 15.5 C2 13 2 13 3 12 C2.34 11.67 1.68 11.34 1 11 C1.33 9.02 1.66 7.04 2 5 C1.34 5 0.68 5 0 5 C0 3.35 0 1.7 0 0 Z " fill="#D7F8D4" transform="translate(78,55)"/>
<path d="M0 0 C3.29458577 1.2217181 5.39253558 2.78507115 7 6 C6.01 6.33 5.02 6.66 4 7 C4.06960937 7.65484375 4.13921875 8.3096875 4.2109375 8.984375 C4.70608256 17.33110608 2.1769931 22.87673498 -2 30 C-5.37462715 29.45276317 -7.08235 28.9451 -10 27 C-9.47845333 21.78453327 -7.93981101 17.33235307 -5 13 C-3.34338239 11.98343919 -1.67888441 10.97934924 0 10 C0 8.35 0 6.7 0 5 C-4.95 5 -9.9 5 -15 5 C-15.33 3.68 -15.66 2.36 -16 1 C-11.35846489 -1.32076756 -5.05112277 -0.43000478 0 0 Z " fill="#84EF5D" transform="translate(65,54)"/>
<path d="M0 0 C0.57105469 0.2784375 1.14210938 0.556875 1.73046875 0.84375 C2.84130376 4.17625502 2.8980646 6.77413958 2.91796875 10.28125 C2.93214844 11.41433594 2.94632813 12.54742187 2.9609375 13.71484375 C2.58781471 18.78045994 0.69332648 21.13877589 -2.89453125 24.59375 C-3.52617188 25.20734375 -4.1578125 25.8209375 -4.80859375 26.453125 C-5.29070312 26.91203125 -5.7728125 27.3709375 -6.26953125 27.84375 C-6.92953125 27.51375 -7.58953125 27.18375 -8.26953125 26.84375 C-7.60953125 26.18375 -6.94953125 25.52375 -6.26953125 24.84375 C-5.62700775 22.77500966 -5.62700775 22.77500966 -5.26953125 20.84375 C-4.60953125 20.84375 -3.94953125 20.84375 -3.26953125 20.84375 C-2.93953125 17.54375 -2.60953125 14.24375 -2.26953125 10.84375 C-3.19765625 11.33875 -4.12578125 11.83375 -5.08203125 12.34375 C-8.26953125 13.84375 -8.26953125 13.84375 -11.26953125 13.84375 C-11.26953125 12.19375 -11.26953125 10.54375 -11.26953125 8.84375 C-14.18470417 9.91776108 -16.04763301 10.62185176 -18.26953125 12.84375 C-20.89453125 12.96875 -20.89453125 12.96875 -23.26953125 12.84375 C-23.26953125 14.49375 -23.26953125 16.14375 -23.26953125 17.84375 C-21.61953125 17.51375 -19.96953125 17.18375 -18.26953125 16.84375 C-20.62906219 19.20328094 -22.04848742 19.33516413 -25.26953125 19.84375 C-25.26953125 18.19375 -25.26953125 16.54375 -25.26953125 14.84375 C-26.58953125 14.18375 -27.90953125 13.52375 -29.26953125 12.84375 C-28.3259375 12.40804687 -27.38234375 11.97234375 -26.41015625 11.5234375 C-25.11320049 10.92204914 -23.81633181 10.32047296 -22.51953125 9.71875 C-21.84301514 9.40615234 -21.16649902 9.09355469 -20.46948242 8.77148438 C-15.13693624 6.29152162 -9.92862212 3.61603717 -4.7578125 0.8125 C-2.26953125 -0.15625 -2.26953125 -0.15625 0 0 Z " fill="#23416F" transform="translate(122.26953125,65.15625)"/>
<path d="M0 0 C0.495 1.485 0.495 1.485 1 3 C-2.82754473 9.42480723 -7.97782331 11.13239982 -15 13 C-21.68125161 14.57532279 -28.40855882 16.12310902 -35.30078125 15.953125 C-39.08784645 15.66559372 -39.08784645 15.66559372 -42 18 C-42.33338596 21.54187831 -42.33338596 21.54187831 -42 25 C-40.83752049 26.38929654 -40.83752049 26.38929654 -37.625 26.125 C-34.04677028 26.17300461 -34.04677028 26.17300461 -31 25 C-31.33 25.99 -31.66 26.98 -32 28 C-32.99 28.33 -33.98 28.66 -35 29 C-29.72 29.33 -24.44 29.66 -19 30 C-19 30.33 -19 30.66 -19 31 C-26.26 31 -33.52 31 -41 31 C-40.67 30.34 -40.34 29.68 -40 29 C-40.825 28.505 -41.65 28.01 -42.5 27.5 C-45.54755935 24.45244065 -45.55836707 23.11605856 -45.56640625 19 C-44.72868001 16.04195976 -43.44642617 14.83176668 -41 13 C-38.0546875 12.6796875 -38.0546875 12.6796875 -34.875 12.875 C-31.766967 13.09065166 -31.766967 13.09065166 -29 13 C-28.34 12.34 -27.68 11.68 -27 11 C-27.66 10.67 -28.32 10.34 -29 10 C-29 9.01 -29 8.02 -29 7 C-28.34 7 -27.68 7 -27 7 C-27 7.66 -27 8.32 -27 9 C-25.35 9 -23.7 9 -22 9 C-21.67 8.34 -21.34 7.68 -21 7 C-19 6.66666667 -17 6.33333333 -15 6 C-14.67 5.34 -14.34 4.68 -14 4 C-12.515 4.99 -12.515 4.99 -11 6 C-7.8371515 5.19595537 -7.8371515 5.19595537 -5 4 C-5.33 4.99 -5.66 5.98 -6 7 C-4.02 4.69 -2.04 2.38 0 0 Z " fill="#174367" transform="translate(122,85)"/>
<path d="M0 0 C0.99 0 1.98 0 3 0 C2.85915204 1.79206547 2.71216299 3.58364917 2.5625 5.375 C2.48128906 6.37273437 2.40007812 7.37046875 2.31640625 8.3984375 C2 11 2 11 1 13 C0.01 13 -0.98 13 -2 13 C-2.33 11.35 -2.66 9.7 -3 8 C-3.66 8 -4.32 8 -5 8 C-5.33 7.34 -5.66 6.68 -6 6 C-6.99 6 -7.98 6 -9 6 C-9.99 8.31 -10.98 10.62 -12 13 C-10.35 12.67 -8.7 12.34 -7 12 C-7 12.99 -7 13.98 -7 15 C-10.3 15.33 -13.6 15.66 -17 16 C-15.8905928 12.51329166 -14.73662334 9.22515763 -13 6 C-13.86625 6.495 -13.86625 6.495 -14.75 7 C-17 8 -17 8 -21 8 C-21 10.97 -21 13.94 -21 17 C-22.32 17 -23.64 17 -25 17 C-25 14.03 -25 11.06 -25 8 C-25.99 8.33 -26.98 8.66 -28 9 C-28 7.68 -28 6.36 -28 5 C-24.25 4.53125 -24.25 4.53125 -20.5 4.0625 C-19.80390625 3.97548828 -19.1078125 3.88847656 -18.390625 3.79882812 C-15.48828125 3.43603516 -12.5859375 3.07324219 -9.68359375 2.71044922 C-8.95269531 2.61908691 -8.22179687 2.52772461 -7.46875 2.43359375 C-5.75171875 2.21896484 -5.75171875 2.21896484 -4 2 C-3.01 3.32 -2.02 4.64 -1 6 C-0.67 4.02 -0.34 2.04 0 0 Z " fill="#2C4275" transform="translate(124,120)"/>
<path d="M0 0 C0.33 1.65 0.66 3.3 1 5 C1.99 5.33 2.98 5.66 4 6 C2.329375 6.309375 2.329375 6.309375 0.625 6.625 C-3.23148873 7.60648404 -3.23148873 7.60648404 -4.375 10.9375 C-4.58125 11.948125 -4.7875 12.95875 -5 14 C-5.33 14.99 -5.66 15.98 -6 17 C-7.98 17 -9.96 17 -12 17 C-12 16.34 -12 15.68 -12 15 C-13.32 15 -14.64 15 -16 15 C-16.33 14.01 -16.66 13.02 -17 12 C-15.35 11.34 -13.7 10.68 -12 10 C-12.18129815 6.56206661 -12.18129815 6.56206661 -13 3 C-14.97742781 1.73990208 -14.97742781 1.73990208 -17 1 C-10.97767819 -0.46619907 -6.09632423 -1.32528788 0 0 Z " fill="#2B4E74" transform="translate(97,79)"/>
<path d="M0 0 C-0.33 0.99 -0.66 1.98 -1 3 C-1.67417969 3.08765625 -2.34835938 3.1753125 -3.04296875 3.265625 C-6.78804737 4.19571058 -9.93765473 5.94020466 -13.3125 7.75 C-23.89171355 13.22192234 -35.00446121 17.35738185 -47 18 C-47.33 16.35 -47.66 14.7 -48 13 C-46.50726563 12.92265625 -46.50726563 12.92265625 -44.984375 12.84375 C-31.08901099 11.82294862 -18.8571794 7.18268655 -6.59765625 0.6796875 C-3 -1 -3 -1 0 0 Z " fill="#B2ECA1" transform="translate(124,63)"/>
<path d="M0 0 C0.99 0 1.98 0 3 0 C3.67617524 2.37265061 4.34108226 4.74755355 5 7.125 C5.19078125 7.79015625 5.3815625 8.4553125 5.578125 9.140625 C6.70084066 13.23051777 7 16.78864985 7 21 C7.66 21.99 8.32 22.98 9 24 C9.33 23.67 9.66 23.34 10 23 C11.66617115 22.95936168 13.33388095 22.957279 15 23 C15 24.65 15 26.3 15 28 C11.25 29.125 11.25 29.125 9 28 C8.67 28.66 8.34 29.32 8 30 C7.34 29.01 6.68 28.02 6 27 C5.34 27.33 4.68 27.66 4 28 C3.15274579 24.8160367 2.32477028 21.62735477 1.5 18.4375 C1.26152344 17.54224609 1.02304688 16.64699219 0.77734375 15.72460938 C-0.5166371 10.67808405 -1.39188859 6.21351789 -1 1 C-0.67 0.67 -0.34 0.34 0 0 Z " fill="#1C536A" transform="translate(69,60)"/>
<path d="M0 0 C7.29274458 0.08512931 11.55165016 2.12970121 16.875 7 C19.45105871 11.13730641 19.82027302 14.51685097 19.9375 19.3125 C18.9475 19.3125 17.9575 19.3125 16.9375 19.3125 C16.56625 18.260625 16.195 17.20875 15.8125 16.125 C14.01382436 11.9023948 11.6594842 9.94890548 7.9375 7.3125 C4.78819107 6.26273036 2.54935544 6.21118405 -0.75 6.25 C-1.74386719 6.25902344 -2.73773438 6.26804687 -3.76171875 6.27734375 C-4.52097656 6.28894531 -5.28023438 6.30054688 -6.0625 6.3125 C-6.105221 4.64638095 -6.10313832 2.97867115 -6.0625 1.3125 C-4.37252987 -0.37747013 -2.31386714 0.06047246 0 0 Z " fill="#4DDA70" transform="translate(83.0625,47.6875)"/>
<path d="M0 0 C-0.33 3.3 -0.66 6.6 -1 10 C-1.66 10 -2.32 10 -3 10 C-3 10.99 -3 11.98 -3 13 C-4.96466413 14.06775224 -6.96855359 15.06553465 -9 16 C-9.66 15.67 -10.32 15.34 -11 15 C-13.88395737 15 -16.29477815 16.05905327 -19 17 C-18.67 15.68 -18.34 14.36 -18 13 C-16.35 12.67 -14.7 12.34 -13 12 C-13 10.02 -13 8.04 -13 6 C-11.35 5.34 -9.7 4.68 -8 4 C-7.67 4.33 -7.34 4.66 -7 5 C-6.731875 4.360625 -6.46375 3.72125 -6.1875 3.0625 C-4.60976325 0.32222039 -3.09853405 0 0 0 Z " fill="#648E95" transform="translate(120,76)"/>
<path d="M0 0 C0.66 0 1.32 0 2 0 C2.268125 0.61875 2.53625 1.2375 2.8125 1.875 C3.95556848 4.2995233 3.95556848 4.2995233 7 6 C7.7081094 8.99460004 7.77981128 11.91735789 8 15 C3.545 15.495 3.545 15.495 -1 16 C-0.979375 15.195625 -0.95875 14.39125 -0.9375 13.5625 C-0.70366379 11.06645115 -0.70366379 11.06645115 -2 10 C-2 10.99 -2 11.98 -2 13 C-3.32 13 -4.64 13 -6 13 C-5.67 11.02 -5.34 9.04 -5 7 C-4.34 7 -3.68 7 -3 7 C-2.690625 6.030625 -2.38125 5.06125 -2.0625 4.0625 C-1 1 -1 1 0 0 Z " fill="#C0F7AC" transform="translate(68,95)"/>
<path d="M0 0 C0 0.66 0 1.32 0 2 C0.66 2.33 1.32 2.66 2 3 C1.236875 3.2475 0.47375 3.495 -0.3125 3.75 C-3.08930423 4.7577486 -3.08930423 4.7577486 -4.33203125 7 C-6.52523282 9.62978737 -8.0308376 9.75524721 -11.375 10.25 C-12.31085938 10.39953125 -13.24671875 10.5490625 -14.2109375 10.703125 C-16.83421764 10.9823537 -19.36458621 11.05749994 -22 11 C-22.66 9.02 -23.32 7.04 -24 5 C-22.91460937 4.80664062 -21.82921875 4.61328125 -20.7109375 4.4140625 C-19.26558332 4.15127083 -17.82027312 3.88823714 -16.375 3.625 C-15.66214844 3.49867187 -14.94929688 3.37234375 -14.21484375 3.2421875 C-9.54939473 2.38614181 -4.63786825 0 0 0 Z " fill="#E1F6DC" transform="translate(115,95)"/>
<path d="M0 0 C3.00617269 3.00617269 2.59585316 5.82381598 3 10 C-0.68379022 11.17881287 -4.15541573 11.21358801 -8 11 C-10 9 -10 9 -10.375 5.5625 C-10 2 -10 2 -8.375 0 C-5.18820399 -1.34180884 -3.28890107 -0.92947204 0 0 Z " fill="#22926F" transform="translate(89,101)"/>
<path d="M0 0 C2.46038493 0.44897535 4.91789621 0.90868833 7.375 1.375 C8.07367188 1.50132813 8.77234375 1.62765625 9.4921875 1.7578125 C14.7734375 2.7734375 14.7734375 2.7734375 17 5 C19.98537665 5.99512555 21.9692064 6.12893666 25.0859375 6.1328125 C26.09398438 6.13474609 27.10203125 6.13667969 28.140625 6.13867188 C29.20796875 6.13416016 30.2753125 6.12964844 31.375 6.125 C32.45523438 6.12306641 33.53546875 6.12113281 34.6484375 6.11914062 C42.14252761 6.07860769 49.54553267 5.81533236 57 5 C47.00035227 11.66643182 28.10615729 10.88783317 16.4765625 8.94140625 C10.91053453 7.43420092 5.80591631 5.19815046 1 2 C0.67 1.34 0.34 0.68 0 0 Z " fill="#2BC174" transform="translate(60,110)"/>
<path d="M0 0 C1.03125 0.01804687 2.0625 0.03609375 3.125 0.0546875 C5.66761064 0.10177288 8.20833162 0.1675195 10.75 0.25 C6.15651403 2.79889821 1.63178181 2.66037996 -3.49414062 2.81640625 C-7.23646804 2.97624568 -9.06138495 3.12425664 -12.25 5.25 C-12.58338596 8.79187831 -12.58338596 8.79187831 -12.25 12.25 C-11.08752049 13.63929654 -11.08752049 13.63929654 -7.875 13.375 C-4.29677028 13.42300461 -4.29677028 13.42300461 -1.25 12.25 C-1.58 13.24 -1.91 14.23 -2.25 15.25 C-3.24 15.58 -4.23 15.91 -5.25 16.25 C0.03 16.58 5.31 16.91 10.75 17.25 C10.75 17.58 10.75 17.91 10.75 18.25 C3.49 18.25 -3.77 18.25 -11.25 18.25 C-10.92 17.59 -10.59 16.93 -10.25 16.25 C-11.075 15.755 -11.9 15.26 -12.75 14.75 C-15.79755935 11.70244065 -15.80836707 10.36605856 -15.81640625 6.25 C-13.61672952 -1.51713438 -6.62530821 -0.21860154 0 0 Z " fill="#265D70" transform="translate(92.25,97.75)"/>
<path d="M0 0 C9.37047497 -0.91501926 9.37047497 -0.91501926 13.25390625 1.265625 C15.66256658 3.3373746 17.57258084 5.14516168 19 8 C19.039992 9.99960012 19.04346799 12.00047242 19 14 C18.01 14 17.02 14 16 14 C15.608125 13.071875 15.21625 12.14375 14.8125 11.1875 C12.78965539 7.63008361 11.76762999 6.50705199 8 5 C5.27830346 4.7723488 2.74077897 4.86063836 0 5 C0 3.35 0 1.7 0 0 Z " fill="#4FDB6D" transform="translate(78,55)"/>
<path d="M0 0 C6.75 -0.125 6.75 -0.125 9 1 C8.979375 2.0725 8.95875 3.145 8.9375 4.25 C8.9857984 7.14790424 9.13155885 9.28612141 10 12 C6.73045798 11.43628586 5.17424117 10.50037734 3 8 C3.33 9.32 3.66 10.64 4 12 C2.35 12 0.7 12 -1 12 C-0.67 8.04 -0.34 4.08 0 0 Z " fill="#4B5E8A" transform="translate(85,125)"/>
<path d="M0 0 C1.83498047 -0.03867187 1.83498047 -0.03867187 3.70703125 -0.078125 C7.39807709 0.26985239 9.28952815 0.97578209 12.1875 3.25 C12.1875 3.91 12.1875 4.57 12.1875 5.25 C10.04719154 5.93795629 8.63963576 6.37110779 6.4375 5.78125 C3.55931505 5.10167855 0.89142316 5.15539214 -2.0625 5.1875 C-3.14015625 5.19652344 -4.2178125 5.20554687 -5.328125 5.21484375 C-6.55789062 5.23224609 -6.55789062 5.23224609 -7.8125 5.25 C-8.1425 3.93 -8.4725 2.61 -8.8125 1.25 C-5.88789571 -0.21230215 -3.25597176 0.04091273 0 0 Z " fill="#153566" transform="translate(57.8125,53.75)"/>
<path d="M0 0 C0.8971875 0.433125 0.8971875 0.433125 1.8125 0.875 C2.92333501 4.20750502 2.98009585 6.80538958 3 10.3125 C3.01417969 11.44558594 3.02835938 12.57867187 3.04296875 13.74609375 C2.66984596 18.81170994 0.77535773 21.17002589 -2.8125 24.625 C-3.75996094 25.54539062 -3.75996094 25.54539062 -4.7265625 26.484375 C-5.20867187 26.94328125 -5.69078125 27.4021875 -6.1875 27.875 C-6.8475 27.545 -7.5075 27.215 -8.1875 26.875 C-7.55521484 26.16923828 -7.55521484 26.16923828 -6.91015625 25.44921875 C-6.36230469 24.82660156 -5.81445312 24.20398438 -5.25 23.5625 C-4.70472656 22.94761719 -4.15945312 22.33273438 -3.59765625 21.69921875 C-0.78397235 18.0593562 -1.08117191 14.61413683 -1.125 10.1875 C-1.13402344 9.00800781 -1.14304687 7.82851562 -1.15234375 6.61328125 C-1.16394531 5.70964844 -1.17554687 4.80601563 -1.1875 3.875 C-2.8375 3.545 -4.4875 3.215 -6.1875 2.875 C-2.78900376 -0.15937164 -2.78900376 -0.15937164 0 0 Z " fill="#2F9476" transform="translate(122.1875,65.125)"/>
<path d="M0 0 C2.3125 1.25 2.3125 1.25 3.3125 2.25 C3.5 4.6875 3.5 4.6875 3.3125 7.25 C1.3125 9.25 1.3125 9.25 -1.6875 9.5 C-4.6875 9.25 -4.6875 9.25 -6.6875 7.25 C-7.0625 4.8125 -7.0625 4.8125 -6.6875 2.25 C-4.33222347 -0.45420638 -3.50969299 -0.97944921 0 0 Z " fill="#1D806C" transform="translate(117.6875,99.75)"/>
<path d="M0 0 C1.32 0 2.64 0 4 0 C4.66 3.96 5.32 7.92 6 12 C4.35 12 2.7 12 1 12 C1 11.34 1 10.68 1 10 C0.34 9.67 -0.32 9.34 -1 9 C-1 9.66 -1 10.32 -1 11 C-2.32 11 -3.64 11 -5 11 C-5 10.34 -5 9.68 -5 9 C-4.34 9 -3.68 9 -3 9 C-2.01 6.03 -1.02 3.06 0 0 Z " fill="#1E356C" transform="translate(76,124)"/>
<path d="M0 0 C4.05780213 -0.47183746 5.56195324 -0.33329645 8.875 2.1875 C11 5 11 5 11.3125 7.8125 C11.1578125 8.8953125 11.1578125 8.8953125 11 10 C8 9 8 9 6 6 C2.43230448 5.26393501 2.43230448 5.26393501 -1 5 C-0.67 3.35 -0.34 1.7 0 0 Z " fill="#52DA76" transform="translate(80,61)"/>
<path d="M0 0 C3.625 0.375 3.625 0.375 7 1 C7.33 2.65 7.66 4.3 8 6 C7.01 6 6.02 6 5 6 C5 4.68 5 3.36 5 2 C4.01 2.33 3.02 2.66 2 3 C0.77030122 6.51190809 0.77030122 6.51190809 0 10 C1.98 10 3.96 10 6 10 C6 10.66 6 11.32 6 12 C0.65034965 12.35664336 0.65034965 12.35664336 -1.9375 10.9375 C-3.6490104 7.81651045 -2.79291991 5.35466116 -2 2 C-1.34 1.34 -0.68 0.68 0 0 Z " fill="#23396F" transform="translate(64,121)"/>
<path d="M0 0 C0.38063221 2.3260857 0.71269945 4.66055264 1 7 C0 8 0 8 -3.0625 8.0625 C-4.031875 8.041875 -5.00125 8.02125 -6 8 C-6 7.34 -6 6.68 -6 6 C-7.32 6 -8.64 6 -10 6 C-10.33 5.01 -10.66 4.02 -11 3 C-9.73160474 2.49384702 -8.46016898 1.99530901 -7.1875 1.5 C-6.12595703 1.08234375 -6.12595703 1.08234375 -5.04296875 0.65625 C-3 0 -3 0 0 0 Z " fill="#6D979A" transform="translate(91,88)"/>
<path d="M0 0 C0.33 0.66 0.66 1.32 1 2 C1.66 2.33 2.32 2.66 3 3 C2.34 3 1.68 3 1 3 C1 3.99 1 4.98 1 6 C2.65 6 4.3 6 6 6 C5.01 6.66 4.02 7.32 3 8 C3.99 8.66 4.98 9.32 6 10 C-0.27 10 -6.54 10 -13 10 C-13 9.34 -13 8.68 -13 8 C-9.53846154 5 -9.53846154 5 -7 5 C-7 5.66 -7 6.32 -7 7 C-5.02 6.67 -3.04 6.34 -1 6 C-0.67 4.02 -0.34 2.04 0 0 Z " fill="#0C2E61" transform="translate(92,89)"/>
<path d="M0 0 C1.99954746 -0.04254356 4.00041636 -0.04080783 6 0 C7.84473215 1.84473215 7.21643526 4.71210047 7.25 7.1875 C7.21705864 12.18909682 7.01833565 15.82076602 4 20 C3.34 20.33 2.68 20.66 2 21 C2 20.01 2 19.02 2 18 C2.66 18 3.32 18 4 18 C4.33 14.7 4.66 11.4 5 8 C3.35 8.33 1.7 8.66 0 9 C1.375 7.5 1.375 7.5 3 6 C3.66 6 4.32 6 5 6 C5 4.35 5 2.7 5 1 C3.02 1.33 1.04 1.66 -1 2 C-0.67 1.34 -0.34 0.68 0 0 Z " fill="#124065" transform="translate(115,68)"/>
<path d="M0 0 C0 0.99 0 1.98 0 3 C-0.48984375 2.67257813 -0.9796875 2.34515625 -1.484375 2.0078125 C-5.04269563 0.58227411 -8.48203011 0.78845652 -12.25 0.875 C-12.99507812 0.88402344 -13.74015625 0.89304688 -14.5078125 0.90234375 C-16.33868059 0.92581642 -18.16938238 0.96168475 -20 1 C-20.33 1.66 -20.66 2.32 -21 3 C-20.67 1.35 -20.34 -0.3 -20 -2 C-12.33395915 -3.49581285 -6.97473818 -3.41619829 0 0 Z " fill="#B0E5C8" transform="translate(69,54)"/>
<path d="M0 0 C0.9075 0.226875 1.815 0.45375 2.75 0.6875 C2.75 1.6775 2.75 2.6675 2.75 3.6875 C0.75 4.6875 0.75 4.6875 -3.25 4.6875 C-3.25 5.6775 -3.25 6.6675 -3.25 7.6875 C-1.93 8.3475 -0.61 9.0075 0.75 9.6875 C-1.0625 10.375 -1.0625 10.375 -3.25 10.6875 C-5.71756016 9.04245989 -6.19960299 7.88450648 -6.9375 5 C-7.040625 4.236875 -7.14375 3.47375 -7.25 2.6875 C-4.61280971 0.1517401 -3.74095095 -0.35970682 0 0 Z " fill="#54C18E" transform="translate(86.25,100.3125)"/>
<path d="M0 0 C1.485 0.99 1.485 0.99 3 2 C6.70544587 2.19850603 9.47005387 2.17664871 13 1 C12.67 1.99 12.34 2.98 12 4 C11.01 4.33 10.02 4.66 9 5 C14.28 5.33 19.56 5.66 25 6 C25 6.33 25 6.66 25 7 C17.74 7 10.48 7 3 7 C3.33 6.34 3.66 5.68 4 5 C3.01 4.319375 3.01 4.319375 2 3.625 C1.34 3.08875 0.68 2.5525 0 2 C0 1.34 0 0.68 0 0 Z " fill="#0D4261" transform="translate(78,109)"/>
<path d="M0 0 C1.32 0.66 2.64 1.32 4 2 C4.33 1.67 4.66 1.34 5 1 C6.66617115 0.95936168 8.33388095 0.957279 10 1 C10 2.65 10 4.3 10 6 C6.25 7.125 6.25 7.125 4 6 C3.67 6.66 3.34 7.32 3 8 C2.34 7.01 1.68 6.02 1 5 C0.01 5.495 0.01 5.495 -1 6 C-0.67 4.02 -0.34 2.04 0 0 Z " fill="#35727A" transform="translate(74,82)"/>
<path d="M0 0 C7.21931594 -0.37341289 11.03738066 0.79379411 16.9375 5.1875 C19.19907008 8.27145921 19.25505117 8.73415771 18.8125 12.3125 C18.544375 13.529375 18.27625 14.74625 18 16 C17.67 16 17.34 16 17 16 C16.79375 14.783125 16.5875 13.56625 16.375 12.3125 C15.41425034 8.5755151 14.06375314 6.26503954 10.86328125 3.8984375 C7.41633604 2.23638845 3.77895316 2.09237441 0 2 C0 1.34 0 0.68 0 0 Z " fill="#CDF7C7" transform="translate(80,53)"/>
<path d="M0 0 C2.31 0 4.62 0 7 0 C7 0.66 7 1.32 7 2 C5.68 2 4.36 2 3 2 C3.33 5.3 3.66 8.6 4 12 C2.35 12 0.7 12 -1 12 C-0.67 8.04 -0.34 4.08 0 0 Z " fill="#1E356C" transform="translate(85,125)"/>
<path d="M0 0 C2.475 0.99 2.475 0.99 5 2 C5.33 4.97 5.66 7.94 6 11 C4.35 11 2.7 11 1 11 C0.375 9.125 0.375 9.125 0 7 C0.66 6.34 1.32 5.68 2 5 C1.34 3.35 0.68 1.7 0 0 Z " fill="#B9F6A3" transform="translate(70,99)"/>
<path d="M0 0 C-0.33 0.99 -0.66 1.98 -1 3 C-1.99 3.12375 -1.99 3.12375 -3 3.25 C-6.36629344 4.09157336 -9.01769891 5.48113543 -12.03515625 7.16015625 C-14 8 -14 8 -18 8 C-18 7.34 -18 6.68 -18 6 C-15.56781941 4.80036357 -13.13029422 3.61515562 -10.6875 2.4375 C-9.99720703 2.09525391 -9.30691406 1.75300781 -8.59570312 1.40039062 C-3.33984375 -1.11328125 -3.33984375 -1.11328125 0 0 Z " fill="#9FE896" transform="translate(124,63)"/>
<path d="M0 0 C-0.66 1.32 -1.32 2.64 -2 4 C-3.65 4 -5.3 4 -7 4 C-7 5.65 -7 7.3 -7 9 C-5.35 8.67 -3.7 8.34 -2 8 C-4.35953094 10.35953094 -5.77895617 10.49141413 -9 11 C-9 9.35 -9 7.7 -9 6 C-10.32 5.34 -11.64 4.68 -13 4 C-11.58774074 3.32404685 -10.16997095 2.65959941 -8.75 2 C-7.56664063 1.443125 -7.56664063 1.443125 -6.359375 0.875 C-4 0 -4 0 0 0 Z " fill="#163467" transform="translate(106,74)"/>
<path d="M0 0 C2.64 0 5.28 0 8 0 C7.01 0.495 7.01 0.495 6 1 C6.33 4.3 6.66 7.6 7 11 C5.68 11 4.36 11 3 11 C3 8.03 3 5.06 3 2 C2.01 2.33 1.02 2.66 0 3 C0 2.01 0 1.02 0 0 Z " fill="#183068" transform="translate(96,126)"/>
<path d="M0 0 C-3.17673731 2.7229177 -5.93275441 4.88150746 -10 6 C-12.8125 5.625 -12.8125 5.625 -15 5 C-15 4.01 -15 3.02 -15 2 C-12.87707704 1.47076428 -10.75157949 0.95184623 -8.625 0.4375 C-7.44164063 0.14746094 -6.25828125 -0.14257812 -5.0390625 -0.44140625 C-2 -1 -2 -1 0 0 Z " fill="#2D9275" transform="translate(133,110)"/>
<path d="M0 0 C1.625 1.375 1.625 1.375 3 3 C3.99 3.66 4.98 4.32 6 5 C2.04 5 -1.92 5 -6 5 C-6.33 3.68 -6.66 2.36 -7 1 C-4.45132831 -0.27433584 -2.82594567 -0.27570202 0 0 Z " fill="#1F506D" transform="translate(56,54)"/>
<path d="M0 0 C-0.33 0.99 -0.66 1.98 -1 3 C-2.72807318 3.33895656 -4.45751974 3.67091525 -6.1875 4 C-7.63189453 4.2784375 -7.63189453 4.2784375 -9.10546875 4.5625 C-11.7934206 4.96877612 -14.28771019 5.07933572 -17 5 C-17 4.34 -17 3.68 -17 3 C-14.91798472 2.49453964 -12.83432933 1.99583165 -10.75 1.5 C-9.58984375 1.2215625 -8.4296875 0.943125 -7.234375 0.65625 C-4 0 -4 0 0 0 Z " fill="#60C794" transform="translate(110,101)"/>
<path d="M0 0 C0.66 0.66 1.32 1.32 2 2 C1.01 2.33 0.02 2.66 -1 3 C-1 6.63 -1 10.26 -1 14 C-1.66 13.01 -2.32 12.02 -3 11 C-4.32 11.33 -5.64 11.66 -7 12 C-7.33 10.68 -7.66 9.36 -8 8 C-7.01 7.34 -6.02 6.68 -5 6 C-4.7834375 5.01 -4.7834375 5.01 -4.5625 4 C-4 2 -4 2 -1.9375 0.75 C-1.298125 0.5025 -0.65875 0.255 0 0 Z " fill="#93DD88" transform="translate(70,58)"/>
<path d="M0 0 C0.99 0 1.98 0 3 0 C2.85915204 1.79206547 2.71216299 3.58364917 2.5625 5.375 C2.48128906 6.37273437 2.40007812 7.37046875 2.31640625 8.3984375 C2 11 2 11 1 13 C0.01 13 -0.98 13 -2 13 C-2.66 11.02 -3.32 9.04 -4 7 C-3.01 6.67 -2.02 6.34 -1 6 C-0.67 4.02 -0.34 2.04 0 0 Z " fill="#21386E" transform="translate(124,120)"/>
<path d="M0 0 C0.3125 2.3125 0.3125 2.3125 0 5 C-2.86103423 7.24243223 -4.34076304 8 -8 8 C-7.8125 5.6875 -7.8125 5.6875 -7 3 C-2.96551724 0 -2.96551724 0 0 0 Z " fill="#91CDAF" transform="translate(120,69)"/>
<path d="M0 0 C0.66 0.66 1.32 1.32 2 2 C4.32817964 2.36760731 6.6618385 2.70241581 9 3 C10 4 10 4 10.0625 7.0625 C10.041875 8.031875 10.02125 9.00125 10 10 C10.66 10.33 11.32 10.66 12 11 C11.34 11 10.68 11 10 11 C9.67 12.32 9.34 13.64 9 15 C9 11.7 9 8.4 9 5 C6.56282742 5.27034634 6.56282742 5.27034634 4 6 C3.01 7.485 3.01 7.485 2 9 C1.34 6.03 0.68 3.06 0 0 Z " fill="#0E2C62" transform="translate(75,78)"/>
<path d="M0 0 C4.95 0.99 9.9 1.98 15 3 C14.01 4.32 13.02 5.64 12 7 C7.39104317 5.68315519 3.85859765 3.84801255 0 1 C0 0.67 0 0.34 0 0 Z " fill="#48B686" transform="translate(60,110)"/>
<path d="M0 0 C2.31 0.33 4.62 0.66 7 1 C7.33 2.65 7.66 4.3 8 6 C6.02 6.33 4.04 6.66 2 7 C2 5.02 2 3.04 2 1 C1.34 0.67 0.68 0.34 0 0 Z " fill="#81BEA7" transform="translate(90,78)"/>
<path d="M0 0 C0.33 0 0.66 0 1 0 C1.28875 1.093125 1.5775 2.18625 1.875 3.3125 C2.81893204 7.04013845 2.81893204 7.04013845 5 10 C1.7 9.67 -1.6 9.34 -5 9 C-4.67 8.01 -4.34 7.02 -4 6 C-2.68 6 -1.36 6 0 6 C0 4.02 0 2.04 0 0 Z " fill="#C4E7C2" transform="translate(76,104)"/>
<path d="M0 0 C0.33 0 0.66 0 1 0 C1.33 2.97 1.66 5.94 2 9 C0.35 9 -1.3 9 -3 9 C-3 8.34 -3 7.68 -3 7 C-3.99 7 -4.98 7 -6 7 C-6 6.34 -6 5.68 -6 5 C-5.34 4.67 -4.68 4.34 -4 4 C-4 3.34 -4 2.68 -4 2 C-3.34 2 -2.68 2 -2 2 C-1.67 2.66 -1.34 3.32 -1 4 C-0.67 2.68 -0.34 1.36 0 0 Z " fill="#4A5C88" transform="translate(80,127)"/>
<path d="M0 0 C0 1.65 0 3.3 0 5 C-1.98 5.66 -3.96 6.32 -6 7 C-6 5.02 -6 3.04 -6 1 C-3.92446352 0.4465236 -2.15634036 0 0 0 Z " fill="#92D2B0" transform="translate(91,81)"/>
<path d="M0 0 C0.99 0.66 1.98 1.32 3 2 C1.26043342 3.73956658 -1.1936622 3.37190386 -3.5625 3.5625 C-5.08037109 3.68818359 -5.08037109 3.68818359 -6.62890625 3.81640625 C-7.41136719 3.87699219 -8.19382812 3.93757813 -9 4 C-9 3.01 -9 2.02 -9 1 C-5.98131566 -0.50934217 -3.32702771 -0.17510672 0 0 Z " fill="#30D072" transform="translate(87,56)"/>
<path d="M0 0 C2.0625 0.4375 2.0625 0.4375 4 1 C4 2.65 4 4.3 4 6 C2.0625 6.5625 2.0625 6.5625 0 7 C-1 6 -1 6 -1.125 3.5 C-1 1 -1 1 0 0 Z " fill="#44D674" transform="translate(81,67)"/>
<path d="M0 0 C2.475 0.99 2.475 0.99 5 2 C5.125 4.375 5.125 4.375 5 7 C4.34 7.66 3.68 8.32 3 9 C0.875 8.625 0.875 8.625 -1 8 C-0.01 7.67 0.98 7.34 2 7 C2 5.35 2 3.7 2 2 C0.35 2.33 -1.3 2.66 -3 3 C-2.01 2.01 -1.02 1.02 0 0 Z " fill="#55BE8E" transform="translate(115,99)"/>
<path d="M0 0 C2.97 0 5.94 0 9 0 C8.67 0.99 8.34 1.98 8 3 C5.69 3.33 3.38 3.66 1 4 C0.67 2.68 0.34 1.36 0 0 Z " fill="#E2F6DD" transform="translate(91,100)"/>
<path d="M0 0 C0.99 0 1.98 0 3 0 C3 0.66 3 1.32 3 2 C4.98 1.34 6.96 0.68 9 0 C9 0.99 9 1.98 9 3 C5.7 3.33 2.4 3.66 -1 4 C-0.67 2.68 -0.34 1.36 0 0 Z " fill="#1D356B" transform="translate(108,132)"/>
<path d="M0 0 C0 1.98 0 3.96 0 6 C-0.33 4.68 -0.66 3.36 -1 2 C-2.0725 2.20625 -3.145 2.4125 -4.25 2.625 C-7.87619096 2.9876191 -9.08291076 2.98362069 -12 1 C-7.93631321 0.22596442 -4.13574827 -0.0984702 0 0 Z " fill="#264071" transform="translate(92,79)"/>
<path d="M0 0 C0 1.65 0 3.3 0 5 C-1.65 5.33 -3.3 5.66 -5 6 C-5.33 4.68 -5.66 3.36 -6 2 C-2.25 0 -2.25 0 0 0 Z " fill="#8DD0AD" transform="translate(111,74)"/>
<path d="M0 0 C1.485 0.99 1.485 0.99 3 2 C6.70544587 2.19850603 9.47005387 2.17664871 13 1 C12.67 1.99 12.34 2.98 12 4 C4.65882353 5.34588235 4.65882353 5.34588235 1.5 3.6875 C0 2 0 2 0 0 Z " fill="#103363" transform="translate(78,109)"/>
<path d="M0 0 C0 0.66 0 1.32 0 2 C0.66 2.33 1.32 2.66 2 3 C1.21625 3.309375 0.4325 3.61875 -0.375 3.9375 C-2.92330128 4.92875038 -2.92330128 4.92875038 -5 6 C-5.99 5.34 -6.98 4.68 -8 4 C-8 3.34 -8 2.68 -8 2 C-2.25 0 -2.25 0 0 0 Z " fill="#CAE6D0" transform="translate(115,95)"/>
<path d="M0 0 C0 1.32 0 2.64 0 4 C-1.98 4.33 -3.96 4.66 -6 5 C-6 3.68 -6 2.36 -6 1 C-3 0 -3 0 0 0 Z " fill="#86CBA9" transform="translate(91,88)"/>
<path d="M0 0 C0 1.65 0 3.3 0 5 C-1.65 5.33 -3.3 5.66 -5 6 C-5 4.35 -5 2.7 -5 1 C-3 0 -3 0 0 0 Z " fill="#95DBB2" transform="translate(104,77)"/>
<path d="M0 0 C0.66 1.32 1.32 2.64 2 4 C1.01 4.66 0.02 5.32 -1 6 C-1.33 5.34 -1.66 4.68 -2 4 C-3.97888961 3.27306096 -5.97954558 2.60183749 -8 2 C-8 1.67 -8 1.34 -8 1 C-5.23735711 0.40267181 -2.83967231 0 0 0 Z " fill="#394D7E" transform="translate(120,122)"/>
<path d="M0 0 C2.97 0.33 5.94 0.66 9 1 C9 1.99 9 2.98 9 4 C5.625 3.6875 5.625 3.6875 2 3 C1.34 2.01 0.68 1.02 0 0 Z " fill="#39CF7C" transform="translate(71,115)"/>
<path d="M0 0 C1.65 0 3.3 0 5 0 C4.67 1.32 4.34 2.64 4 4 C2.35 4.33 0.7 4.66 -1 5 C-0.67 3.35 -0.34 1.7 0 0 Z " fill="#81C8A6" transform="translate(94,86)"/>
<path d="M0 0 C1.32 0.66 2.64 1.32 4 2 C3.01 2.33 2.02 2.66 1 3 C1 4.32 1 5.64 1 7 C-0.32 7.33 -1.64 7.66 -3 8 C-3.36923077 3.44615385 -3.36923077 3.44615385 -1.5 1.1875 C-1.005 0.795625 -0.51 0.40375 0 0 Z " fill="#DEFBD4" transform="translate(70,103)"/>
<path d="M0 0 C-0.1875 1.875 -0.1875 1.875 -1 4 C-3.5625 5.25 -3.5625 5.25 -6 6 C-6 4.68 -6 3.36 -6 2 C-2.25 0 -2.25 0 0 0 Z " fill="#8FD6AF" transform="translate(120,76)"/>
<path d="M0 0 C2.31 0.33 4.62 0.66 7 1 C7.33 2.65 7.66 4.3 8 6 C7.01 6 6.02 6 5 6 C5 4.68 5 3.36 5 2 C3.35 1.67 1.7 1.34 0 1 C0 0.67 0 0.34 0 0 Z " fill="#304477" transform="translate(64,121)"/>
<path d="M0 0 C1.65 0 3.3 0 5 0 C5.33 1.32 5.66 2.64 6 4 C4.35 4 2.7 4 1 4 C0.67 2.68 0.34 1.36 0 0 Z " fill="#84F05C" transform="translate(70,106)"/>
<path d="M0 0 C1.32 0 2.64 0 4 0 C3.67 1.65 3.34 3.3 3 5 C1.68 4.67 0.36 4.34 -1 4 C-0.67 2.68 -0.34 1.36 0 0 Z " fill="#0E3162" transform="translate(83,104)"/>
<path d="M0 0 C4 0 4 0 7 1 C6.67 1.99 6.34 2.98 6 4 C6 3.34 6 2.68 6 2 C5.34 2 4.68 2 4 2 C3.67 2.66 3.34 3.32 3 4 C2.01 4.33 1.02 4.66 0 5 C0 3.35 0 1.7 0 0 Z " fill="#A4ADC4" transform="translate(112,141)"/>
<path d="M0 0 C-0.33 0.66 -0.66 1.32 -1 2 C-1.56203125 1.68289062 -2.1240625 1.36578125 -2.703125 1.0390625 C-5.15196317 -0.06874525 -7.08387855 -0.38975399 -9.75 -0.625 C-10.54921875 -0.69976562 -11.3484375 -0.77453125 -12.171875 -0.8515625 C-12.77515625 -0.90054688 -13.3784375 -0.94953125 -14 -1 C-14 -1.33 -14 -1.66 -14 -2 C-4.58997722 -3.70159453 -4.58997722 -3.70159453 0 0 Z " fill="#ADC9C6" transform="translate(70,55)"/>
<path d="M0 0 C0.33 0 0.66 0 1 0 C1.12375 0.9075 1.2475 1.815 1.375 2.75 C1.92109677 5.58970323 2.57263803 7.52590591 4 10 C2.35 10 0.7 10 -1 10 C-0.67 6.7 -0.34 3.4 0 0 Z " fill="#273F72" transform="translate(85,127)"/>
<path d="M0 0 C0.99 0 1.98 0 3 0 C3 0.66 3 1.32 3 2 C3.66 2.33 4.32 2.66 5 3 C4.67 3.66 4.34 4.32 4 5 C2.68 4.67 1.36 4.34 0 4 C0 2.68 0 1.36 0 0 Z " fill="#E8FCE0" transform="translate(57,94)"/>
<path d="M0 0 C0.99 0 1.98 0 3 0 C3 1.32 3 2.64 3 4 C1.35 4.33 -0.3 4.66 -2 5 C-1.125 1.125 -1.125 1.125 0 0 Z " fill="#8ED6AE" transform="translate(102,83)"/>
<path d="M0 0 C0.99 0.33 1.98 0.66 3 1 C2.67 2.32 2.34 3.64 2 5 C0.68 4.67 -0.64 4.34 -2 4 C-1.34 2.68 -0.68 1.36 0 0 Z " fill="#A6B0C5" transform="translate(94,141)"/>
<path d="M0 0 C-3.72965139 2.03435531 -5.66905042 3 -10 3 C-10 2.34 -10 1.68 -10 1 C-8.71073008 0.63720544 -7.41846728 0.28503302 -6.125 -0.0625 C-5.40570313 -0.25972656 -4.68640625 -0.45695312 -3.9453125 -0.66015625 C-2 -1 -2 -1 0 0 Z " fill="#BEEFAF" transform="translate(116,68)"/>
<path d="M0 0 C0.33 0 0.66 0 1 0 C1.3125 2.3125 1.3125 2.3125 1 5 C-1.5 6.8125 -1.5 6.8125 -4 8 C-2.87548273 5.0280615 -1.77706209 2.66559313 0 0 Z " fill="#E4FADD" transform="translate(65,59)"/>
<path d="M0 0 C0 1.32 0 2.64 0 4 C-1.32 4.33 -2.64 4.66 -4 5 C-4.33 3.68 -4.66 2.36 -5 1 C-2 0 -2 0 0 0 Z " fill="#88C3AA" transform="translate(119,82)"/>
<path d="M0 0 C1.32 0 2.64 0 4 0 C4 1.32 4 2.64 4 4 C2.35 3.67 0.7 3.34 -1 3 C-0.67 2.01 -0.34 1.02 0 0 Z " fill="#D2E8D3" transform="translate(79,83)"/>
<path d="M0 0 C2.31 0 4.62 0 7 0 C7.33 0.99 7.66 1.98 8 3 C5.6568787 2.74438677 3.32156597 2.40729228 1 2 C0.67 1.34 0.34 0.68 0 0 Z " fill="#09295F" transform="translate(56,54)"/>
<path d="M0 0 C-1.98 1.32 -3.96 2.64 -6 4 C-6 3.34 -6 2.68 -6 2 C-6.99 1.67 -7.98 1.34 -9 1 C-2.25 -1.125 -2.25 -1.125 0 0 Z " fill="#4CA988" transform="translate(133,110)"/>
<path d="M0 0 C-0.33 1.32 -0.66 2.64 -1 4 C-2.32 4.33 -3.64 4.66 -5 5 C-4.625 3.0625 -4.625 3.0625 -4 1 C-2 0 -2 0 0 0 Z " fill="#93E2B2" transform="translate(112,80)"/>
</svg>
